<?xml version="1.0" standalone="no"?>
<!DOCTYPE svg PUBLIC "-//W3C//DTD SVG 20010904//EN"
 "http://www.w3.org/TR/2001/REC-SVG-20010904/DTD/svg10.dtd">
<svg version="1.0" xmlns="http://www.w3.org/2000/svg"
 width="640.000000pt" height="640.000000pt" viewBox="0 0 640.000000 640.000000"
 preserveAspectRatio="xMidYMid meet">
<metadata>
Created by potrace 1.14, written by Peter Selinger 2001-2017
</metadata>
<g transform="translate(0.000000,640.000000) scale(0.100000,-0.100000)"
fill="#000000" stroke="none">
<path d="M2895 6193 c-75 -20 -171 -95 -210 -163 -20 -36 -61 -119 -78 -160
-20 -47 -49 -179 -42 -190 3 -5 1 -11 -4 -14 -9 -6 -7 -630 2 -716 3 -25 8
-79 11 -120 3 -41 7 -91 10 -110 3 -19 8 -73 11 -120 3 -47 7 -107 10 -135 9
-93 14 -160 20 -240 3 -44 8 -93 10 -110 3 -16 7 -64 10 -105 4 -67 10 -141
20 -252 12 -145 65 -241 152 -277 34 -14 133 -18 193 -8 53 8 139 45 183 77
38 28 117 123 117 140 0 5 5 21 12 37 17 42 19 53 20 118 0 58 -6 122 -17 175
-5 25 -8 44 -21 160 -14 123 -7 623 11 690 2 8 6 51 10 95 3 44 8 96 10 115 3
19 7 55 10 80 2 25 8 72 12 105 9 83 10 421 0 470 -6 33 -25 103 -32 125 -1 3
-6 20 -10 38 -4 18 -12 35 -16 38 -5 3 -9 11 -9 19 0 21 -69 133 -100 163 -55
53 -109 74 -195 78 -44 1 -89 0 -100 -3z"/>
<path d="M1517 5619 c-118 -28 -190 -111 -219 -254 -14 -72 -17 -304 -4 -400
4 -27 9 -68 11 -90 3 -22 7 -49 9 -60 2 -11 7 -40 11 -65 3 -25 11 -58 16 -75
5 -16 11 -43 13 -60 2 -16 18 -84 36 -150 17 -66 33 -124 34 -130 1 -5 7 -23
13 -40 9 -23 33 -99 48 -155 1 -3 4 -12 8 -20 3 -8 47 -136 96 -284 93 -274
121 -335 197 -418 94 -104 179 -153 264 -152 137 2 219 101 237 287 4 50 1 72
-14 107 -35 77 -80 202 -98 270 -10 36 -20 72 -23 80 -3 8 -6 21 -8 29 -1 8
-10 46 -18 85 -20 87 -25 112 -32 155 -3 18 -8 43 -10 55 -2 11 -7 37 -10 56
-2 19 -9 58 -14 85 -9 48 -15 90 -26 165 -2 19 -7 51 -10 70 -4 19 -8 46 -10
60 -1 14 -6 41 -10 60 -4 19 -8 42 -10 50 -2 8 -6 31 -10 50 -4 19 -8 44 -9
55 -7 58 -79 328 -95 357 -6 10 -10 23 -10 30 0 7 -16 44 -35 82 -36 71 -85
125 -137 152 -35 18 -129 25 -181 13z"/>
<path d="M4520 5610 c-94 -34 -206 -129 -276 -233 -16 -23 -34 -47 -40 -54
-12 -12 -108 -202 -109 -215 0 -3 -3 -10 -7 -14 -5 -4 -8 -14 -8 -22 0 -8 -6
-28 -14 -45 -12 -29 -47 -137 -52 -162 -1 -5 -16 -64 -34 -130 -18 -66 -35
-129 -37 -140 -3 -11 -7 -27 -10 -35 -3 -8 -8 -24 -10 -35 -2 -11 -12 -49 -22
-85 -23 -80 -34 -122 -36 -135 -1 -5 -5 -17 -8 -25 -3 -8 -17 -55 -30 -105
-26 -95 -58 -204 -102 -345 -41 -134 -50 -207 -31 -268 13 -45 72 -103 131
-132 55 -27 151 -31 200 -10 17 7 32 14 35 14 20 5 81 56 110 92 85 106 297
513 419 804 41 96 82 194 92 217 11 24 19 47 19 53 0 6 4 18 10 28 10 17 34
80 96 257 20 55 40 109 44 120 35 75 43 125 43 255 0 154 -3 173 -35 236 -40
80 -120 126 -228 129 -40 1 -82 -5 -110 -15z"/>
<path d="M268 4285 c-2 -3 -26 -7 -53 -10 -45 -4 -133 -32 -145 -44 -3 -4 -18
-13 -35 -21 l-30 -16 -3 -199 c-2 -204 1 -226 41 -280 4 -5 41 -64 83 -129
189 -299 409 -558 583 -686 19 -14 47 -35 62 -47 15 -13 30 -23 33 -23 3 0 15
-8 26 -17 11 -10 42 -31 68 -46 193 -115 305 -125 404 -37 93 81 110 184 49
302 -28 55 -143 222 -313 456 -29 41 -57 81 -63 90 -5 9 -12 19 -15 22 -3 3
-18 23 -35 45 -37 50 -39 53 -70 91 -14 18 -25 37 -25 43 0 6 -4 11 -8 11 -4
0 -16 13 -25 30 -10 16 -23 35 -30 42 -7 7 -24 29 -37 48 -13 19 -27 37 -30
40 -3 3 -32 41 -64 85 -110 148 -207 223 -310 239 -21 4 -42 8 -46 11 -4 2 -9
2 -12 0z"/>
<path d="M3139 3246 c-2 -2 -44 -7 -94 -10 -113 -8 -159 -13 -212 -20 -24 -3
-62 -8 -85 -11 -56 -8 -146 -23 -233 -40 -38 -8 -82 -16 -98 -19 -15 -3 -35
-7 -45 -10 -9 -3 -28 -7 -42 -10 -69 -13 -392 -101 -425 -115 -163 -71 -229
-112 -300 -187 -106 -112 -143 -197 -161 -376 -2 -24 -7 -72 -11 -108 -13
-133 -6 -478 11 -559 3 -13 8 -49 12 -80 3 -31 11 -67 16 -81 5 -14 9 -27 9
-30 -2 -9 11 -75 16 -90 3 -8 8 -24 10 -35 11 -59 83 -246 138 -360 113 -230
253 -425 437 -607 82 -81 183 -156 223 -165 6 -1 30 -9 54 -18 123 -45 304 6
405 113 37 40 73 102 81 142 2 8 4 15 5 15 6 0 21 87 26 145 7 89 7 347 0 359
-4 6 -3 11 1 11 9 0 8 73 -1 97 -3 7 -2 13 3 13 4 0 2 48 -5 108 -21 169 -27
239 -28 352 -2 136 14 320 34 400 5 19 11 46 14 60 34 179 144 333 256 360 62
15 127 7 195 -24 136 -62 186 -202 140 -388 -12 -50 -109 -314 -155 -423 -15
-35 -40 -121 -45 -151 -2 -16 -9 -46 -14 -66 -5 -21 -7 -38 -5 -38 3 0 0 -8
-5 -18 -21 -39 -31 -331 -16 -497 4 -49 9 -92 10 -95 2 -3 6 -24 9 -46 4 -22
9 -51 12 -64 2 -14 6 -37 9 -52 2 -14 9 -37 16 -50 7 -12 12 -25 11 -28 -4
-11 22 -77 51 -129 47 -86 120 -153 206 -190 72 -31 83 -33 180 -36 174 -5
335 84 434 240 17 27 35 51 39 53 5 2 8 10 8 17 0 8 6 20 13 27 6 7 28 36 46
63 19 28 38 52 41 55 4 3 9 10 11 16 11 30 208 254 300 340 34 32 71 67 81 77
10 9 22 17 27 17 5 0 11 4 13 9 10 25 217 176 372 270 71 44 341 182 360 185
6 1 16 5 23 9 33 21 361 138 453 162 8 3 51 14 95 25 283 75 396 243 302 450
-90 201 -308 276 -556 190 -114 -40 -245 -129 -393 -268 -26 -24 -61 -56 -79
-71 -48 -39 -159 -131 -214 -176 -94 -78 -211 -157 -290 -196 -192 -93 -367
-87 -545 21 -104 63 -164 129 -213 232 -29 60 -35 82 -56 193 -9 48 -7 324 3
395 24 172 27 378 7 462 -21 85 -71 146 -158 189 -39 19 -82 36 -95 37 -12 1
-50 6 -83 12 -54 10 -547 24 -556 16z"/>
</g>
</svg>
