<svg id="Capa_1" enable-background="new 0 0 512 512" height="512" viewBox="0 0 512 512" width="512" xmlns="http://www.w3.org/2000/svg"><path d="m469.99 291.357-.01-107.837h-15c-14.899 0-27.02-12.121-27.02-27.02s12.121-27.02 27.03-27.02h15v-87.47h-64.037c-6.608-24.181-28.772-42.01-55.013-42.01-26.246 0-48.413 17.829-55.023 42.01l-107.827.01v15c0 14.899-12.125 27.02-27.03 27.02-14.899 0-27.02-12.121-27.02-27.03v-15h-92.03v59.477c-24.181 6.608-42.01 28.772-42.01 55.013 0 26.25 17.829 48.415 42.01 55.018l.01 107.833h15c14.899 0 27.02 12.121 27.02 27.02 0 14.904-12.121 27.03-27.03 27.03h-15v96.59h64.037c6.608 24.181 28.772 42.01 55.013 42.01 26.246 0 48.413-17.829 55.023-42.01l107.827-.01v-15c0-14.899 12.125-27.02 27.03-27.02 14.899 0 27.02 12.121 27.02 27.03v15h92.03v-68.602c24.181-6.604 42.01-28.769 42.01-55.019 0-26.241-17.829-48.405-42.01-55.013zm-198.99-161.877v-57.47h52.904l.006-14.994c.007-14.897 12.132-27.016 27.03-27.016 14.893 0 27.014 12.119 27.02 27.016l.006 14.994h62.024v29.469c-24.193 6.598-42.03 28.765-42.03 55.021 0 26.254 17.833 48.42 42.03 55.02v29.48h-34.032c-6.601-24.188-28.766-42.02-55.018-42.02s-48.417 17.832-55.018 42.02h-24.922v-57.48h-15c-14.899 0-27.02-12.121-27.02-27.02s12.121-27.02 27.02-27.02zm-241 27.02c0-14.893 12.119-27.014 27.016-27.02l14.994-.006v-57.464h34.029c6.598 24.193 28.765 42.03 55.021 42.03 26.258 0 48.428-17.833 55.029-42.03h24.911v29.472c-24.188 6.601-42.02 28.766-42.02 55.018s17.832 48.417 42.02 55.018v29.482h-51.624l-1.449 13.386c-1.485 13.725-13.036 24.074-26.867 24.074-13.825 0-25.371-10.35-26.857-24.075l-1.45-13.385h-60.743v-57.48h-15c-14.893 0-27.01-12.121-27.01-27.02zm211 216.9v66.59h-52.904l-.006 14.994c-.007 14.896-12.132 27.016-27.03 27.016-14.893 0-27.014-12.12-27.02-27.017l-.006-14.994h-62.024v-38.589c24.193-6.599 42.03-28.771 42.03-55.031 0-26.254-17.833-48.42-42.03-55.02v-20.349h35.466c8.012 22.073 29.106 37.46 53.584 37.46 24.483 0 45.582-15.387 53.594-37.46h26.346v48.35h15c14.899 0 27.02 12.121 27.02 27.02 0 14.904-12.121 27.03-27.02 27.03zm213.99-.01h-15v66.6h-34.029c-6.598-24.193-28.765-42.03-55.021-42.03-26.258 0-48.428 17.833-55.029 42.03h-24.911v-38.592c24.188-6.603 42.02-28.771 42.02-55.028 0-26.252-17.832-48.417-42.02-55.019v-20.351h52.92v-15c0-14.899 12.121-27.02 27.02-27.02s27.02 12.121 27.02 27.02v15h62.03v48.344l14.994.006c14.897.006 27.016 12.128 27.016 27.02 0 14.899-12.117 27.02-27.01 27.02z"/></svg>