<svg id="Capa_1" enable-background="new 0 0 512.001 512.001" height="512" viewBox="0 0 512.001 512.001" width="512" xmlns="http://www.w3.org/2000/svg"><path d="m415.6 192.801h-32.584l115.768-115.767c17.595-17.594 17.595-46.222 0-63.817-17.594-17.593-46.223-17.593-63.816 0l-115.768 115.769v-32.586-96.4h-126.399v96.4h-96.4v126.4h96.4v66.401h-192.801v222.8h126.4v-96.4h192.8v-96.4h66.401v192.801h126.399v-319.2h-96.4zm-222.8-.001h-66.399v-66.4h66.399zm-162.8 126.401h66.4v66.399h-66.4zm66.4 162.8h-66.4v-66.399h66.4zm96.4-96.4h-66.399v-66.399h66.399zm30.001-162.8h31.018c-2.252 9.841-2.283 26.382-2.143 37.449 11.966.113 24.923.495 37.523-2.139v31.089h-66.398zm60.428 5.945c2.33-12.266 7.255-23.822 14.479-34.028l19.552 19.552c-10.155 7.103-21.887 12.099-34.031 14.476zm34.785-56.149 106.258-106.258 21.39 21.39-106.258 106.258zm159.557-138.167c5.897 5.897 5.897 15.493 0 21.391l-10.695 10.695-21.39-21.39 10.695-10.695c6.637-6.411 16.175-5.057 21.39-.001zm-191.376 127.561c-9.155 9.154-16.614 19.552-22.228 30.809h-41.165v-66.4h66.398v32.585zm-63.394-131.991h66.399v66.399h-66.398v-66.399zm66.399 355.601h-66.398v-66.399h66.398zm96.4-96.401h-66.399v-41.338c11.421-5.663 21.929-13.109 30.81-22.055l3.006-3.006h32.583zm96.4 192.801h-66.399v-66.399h66.399zm-66.399-259.2h66.399v66.399h-66.399zm0 162.8v-66.399h66.399v66.399z"/></svg>