<svg id="Capa_1" enable-background="new 0 0 512.011 512.011" height="512" viewBox="0 0 512.011 512.011" width="512" xmlns="http://www.w3.org/2000/svg"><g><path d="m145.65 116.034c-28.64 0-51.94 23.301-51.94 51.941s23.3 51.941 51.94 51.941 51.941-23.301 51.941-51.941-23.301-51.941-51.941-51.941zm0 73.882c-12.098 0-21.94-9.843-21.94-21.941s9.842-21.941 21.94-21.941 21.941 9.843 21.941 21.941-9.843 21.941-21.941 21.941z"/><path d="m255.995 48.261c-30.524 0-55.357 24.833-55.357 55.357s24.833 55.357 55.357 55.357 55.357-24.833 55.357-55.357-24.833-55.357-55.357-55.357zm0 80.714c-13.982 0-25.357-11.375-25.357-25.357s11.375-25.357 25.357-25.357 25.357 11.375 25.357 25.357-11.375 25.357-25.357 25.357z"/><path d="m117.293 233.724c-26.891 0-48.768 21.877-48.768 48.769 0 26.891 21.877 48.768 48.768 48.768s48.768-21.877 48.768-48.768-21.878-48.769-48.768-48.769zm0 67.537c-10.349 0-18.768-8.419-18.768-18.768s8.419-18.769 18.768-18.769 18.768 8.419 18.768 18.769c0 10.348-8.42 18.768-18.768 18.768z"/><path d="m418.281 167.975c0-28.64-23.301-51.941-51.941-51.941s-51.94 23.301-51.94 51.941 23.301 51.941 51.94 51.941c28.64 0 51.941-23.301 51.941-51.941zm-73.882 0c0-12.098 9.843-21.941 21.94-21.941 12.099 0 21.941 9.843 21.941 21.941s-9.843 21.941-21.941 21.941c-12.097 0-21.94-9.843-21.94-21.941z"/><path d="m345.928 282.493c0 26.891 21.878 48.768 48.769 48.768s48.769-21.877 48.769-48.768-21.878-48.769-48.769-48.769-48.769 21.878-48.769 48.769zm67.538 0c0 10.349-8.42 18.768-18.769 18.768s-18.769-8.419-18.769-18.768 8.42-18.769 18.769-18.769 18.769 8.42 18.769 18.769z"/><path d="m442.919 80.906c-47.022-50.547-114.635-80.432-184.104-80.882-68.726-.962-137.385 27.138-185.646 77.027-55.747 56.084-82.312 138.297-70.318 216.722 7.188 54.555 58.645 98.704 114.283 97.739 39.869 0 76.408-20.106 97.741-53.784 8.917-14.076 24.289-22.479 41.121-22.479 16.831 0 32.202 8.403 41.118 22.479 21.333 33.678 57.871 53.784 97.74 53.784 55.469 1.001 107.54-43.399 114.499-99.129 11.1-77.605-13.115-154.686-66.434-211.477zm-186.923 204.344c-.002 0 0 0-.002 0-13.9 0-27.188 3.572-38.791 10.109v-4.839c0-21.39 17.402-38.791 38.792-38.791s38.791 17.401 38.791 38.791v4.839c-11.603-6.537-24.89-10.109-38.79-10.109zm223.66 2.886c-5.063 40.574-43.102 74.099-84.802 73.376-28.132 0-54.018-13.523-70.068-36.369v-34.624c0-37.932-30.859-68.791-68.792-68.791-37.932 0-68.791 30.859-68.791 68.791v34.624c-16.051 22.846-41.936 36.369-70.069 36.369-40.35.755-79.242-31.287-84.613-72.178-10.522-68.583 12.539-141.543 62.097-191.308 42.303-43.67 102.57-68.859 163.891-68.003 62.169.632 119.893 25.995 162.538 71.417 47.048 50.112 68.411 118.16 58.609 186.696z"/><path d="m147.518 419.177c-12.052-5.591-26.429-11.326-34.707-11.326-36.848 3.882-61.257 34.573-77.312 49.125 17.17 16.519 43.922 46.357 77.312 49.125 8.218 0 22.462-5.66 34.447-11.206l82.601 17.116 246.631-23.166v-63.564l-246.63-23.166zm-35.004 56.919c-7.497-.241-21.506-9.41-33.359-19.148 12.474-10.269 26.262-18.856 33.362-19.092 2.699.402 9.987 3.108 17.868 6.538v25.164c-7.878 3.428-15.173 6.136-17.871 6.538zm47.871-28.948 55.314-11.461v42.752l-55.314-11.461zm286.106 14.383-200.792 18.86v-46.655l200.792 18.86z"/></g></svg>