<svg id="Capa_1" enable-background="new 0 0 512 512" height="512" viewBox="0 0 512 512" width="512" xmlns="http://www.w3.org/2000/svg"><g><path d="m95.494 346.375v105.375h30v-60.25h30.25v60.25h30v-105.375c0-24.882-20.243-45.125-45.125-45.125s-45.125 20.243-45.125 45.125zm45.126-15.125c8.34 0 15.125 6.785 15.125 15.125v15.125h-30.25v-15.125c-.001-8.34 6.784-15.125 15.125-15.125z"/><path d="m331.375 301.25v150.5h45.125c24.882 0 45.125-20.243 45.125-45.125 0-11.568-4.38-22.13-11.563-30.125 7.183-7.995 11.563-18.557 11.563-30.125 0-24.882-20.243-45.125-45.125-45.125zm45.125 120.5h-15.125v-30.25h15.125c8.34 0 15.125 6.785 15.125 15.125s-6.785 15.125-15.125 15.125zm15.125-75.375c0 8.34-6.785 15.125-15.125 15.125h-15.125v-30.25h15.125c8.34 0 15.125 6.785 15.125 15.125z"/><path d="m391.5 241v-241h-271v241h-120.5v271h512v-271zm-241-211h211v211h-211zm90.5 452h-211v-211h211zm241 0h-211v-211h211z"/><path d="m288.341 207.291 21.782-15.826-6.176-36.012 26.164-25.504-8.32-25.605-36.158-5.254-16.17-32.765h-26.924l-16.17 32.765-36.158 5.254-8.32 25.605 26.164 25.504-6.176 36.012 21.782 15.826 32.339-17.003zm-63.764-77.626 21.713-3.155 9.71-19.675 9.71 19.675 21.713 3.155-15.711 15.315 3.709 21.625-19.421-10.209-19.421 10.21 3.709-21.625z"/></g></svg>