<svg id="Capa_1" enable-background="new 0 0 512 512" height="512" viewBox="0 0 512 512" width="512" xmlns="http://www.w3.org/2000/svg"><g><path d="m391.625 210.875h30v30h-30z"/><path d="m90.375 210.875h30v30h-30z"/><path d="m512 406.625c0-19.626-12.598-36.356-30.129-42.553v-183.447h20.131v-43.267l-95.375-59.846-95.379 59.845v43.268h20.127v23.079c-17.642-11.854-38.212-19.668-60.375-22.12v-91.334h76.029l-14.977-45.125 14.977-45.125h-106.029v181.584c-22.165 2.452-42.735 10.267-60.378 22.122v-23.082h20.13v-43.267l-95.375-59.846-95.379 59.846v43.268h20.127v183.448c-17.529 6.198-30.125 22.928-30.125 42.552 0 11.568 4.38 22.13 11.563 30.125-7.183 7.995-11.563 18.557-11.563 30.125 0 24.882 20.243 45.125 45.125 45.125h421.75c24.882 0 45.125-20.243 45.125-45.125 0-11.568-4.38-22.13-11.563-30.125 7.183-7.995 11.563-18.557 11.563-30.125zm-241-376.625h34.463l-5.02 15.125 5.02 15.125h-34.463zm195.875 391.75h-135.625v-30.25h135.625c8.34 0 15.125 6.785 15.125 15.125s-6.785 15.125-15.125 15.125zm-406.75-90.5h60.375v30.25h-60.375zm241.125 30.25h-90.5v-45.646c0-24.951 20.299-45.25 45.25-45.25s45.25 20.299 45.25 45.25zm90.25-30.25h60.371v30.25h-60.371zm15.127-218.321 60.075 37.696h-120.153zm45.244 67.696v120.625h-61.206c-2.917-26.364-13.427-50.47-29.291-70.079v-50.546zm-195.871 30.125c58.173 0 105.5 47.327 105.5 105.5v45.25h-30.25v-45.646c0-41.493-33.757-75.25-75.25-75.25s-75.25 33.757-75.25 75.25v45.646h-30.25v-45.25c0-58.173 47.327-105.5 105.5-105.5zm-150.623-97.821 60.075 37.696h-120.154zm45.245 67.696v50.55c-15.862 19.609-26.37 43.713-29.287 70.075h-61.21v-120.625zm-105.497 210.875 135.625.001v30.249h-135.625c-8.34 0-15.125-6.785-15.125-15.125s6.785-15.125 15.125-15.125zm0 90.5c-8.34 0-15.125-6.785-15.125-15.125s6.785-15.125 15.125-15.125h135.625v30.25zm256.125 0h-90.5v-90.5h90.5zm165.625 0h-135.625v-30.25h135.625c8.34 0 15.125 6.785 15.125 15.125s-6.785 15.125-15.125 15.125z"/></g></svg>