<svg id="Capa_1" enable-background="new 0 0 512 512" height="512" viewBox="0 0 512 512" width="512" xmlns="http://www.w3.org/2000/svg"><g><path d="m376.5 60.25c-.305 0-.606.015-.911.017-27.166-36.544-70.658-60.267-119.589-60.267-48.928 0-92.418 23.719-119.584 60.26-.306-.002-.61-.01-.916-.01-74.715 0-135.5 60.785-135.5 135.5 0 70.213 52.947 154.074 121.268 164.532 4.999 42.456 34.17 78.35 75.735 91.564 26.316 8.367 43.997 32.541 43.997 60.154h30c0-27.613 17.682-51.788 43.998-60.154 41.559-13.212 70.729-49.1 75.732-91.548 30.541-4.583 59.592-23.819 83.015-55.331 23.954-32.227 38.255-73.056 38.255-109.217 0-74.715-60.785-135.5-135.5-135.5zm-120.5-30.25c65.58 0 118.934 53.354 118.934 118.934 0 33.629-13.558 71.946-36.267 102.498-23.58 31.724-53.711 49.918-82.667 49.918s-59.087-18.194-82.667-49.918c-22.709-30.552-36.267-68.869-36.267-102.498 0-65.58 53.354-118.934 118.934-118.934zm-193.668 257.071c-19.943-26.831-32.332-61.823-32.332-91.321 0-52.401 38.404-95.994 88.542-104.131-7.387 17.652-11.476 37.013-11.476 57.314 0 58.439 33.239 125.458 81.886 159.69-16.756 14.675-35.377 22.751-53.452 22.751-25.571.001-52.24-16.147-73.168-44.303zm143.76 136.185c-29.121-9.257-49.872-33.836-54.578-63.237 23.271-3.935 45.623-16.392 65.221-36.298 7.847 3.076 15.952 5.3 24.266 6.523v113.204c-9.781-8.982-21.595-15.959-34.909-20.192zm99.815 0c-13.314 4.233-25.128 11.209-34.907 20.191v-113.203c8.359-1.229 16.507-3.47 24.394-6.573 18.568 18.713 40.831 32.133 65.097 36.315-4.696 29.415-25.451 54.009-54.584 63.27zm143.761-136.185c-20.928 28.155-47.597 44.304-73.168 44.304-18.076 0-36.699-8.073-53.456-22.749 48.649-34.231 81.89-101.252 81.89-159.693 0-20.301-4.089-39.663-11.476-57.314 50.138 8.137 88.542 51.73 88.542 104.131 0 29.498-12.389 64.49-32.332 91.321z"/><path d="m203.511 214.485c14.02 14.021 32.661 21.742 52.489 21.742s38.47-7.722 52.489-21.742l-21.213-21.213c-8.354 8.354-19.462 12.955-31.276 12.955s-22.922-4.601-31.276-12.955z"/><path d="m195.812 126.5h30v30h-30z"/><path d="m286.188 126.5h30v30h-30z"/></g></svg>