<svg width="24" height="25" viewBox="0 0 24 25" fill="none" xmlns="http://www.w3.org/2000/svg">
<path d="M12 22.1272C17.5228 22.1272 22 17.65 22 12.1272C22 6.60435 17.5228 2.1272 12 2.1272C6.47715 2.1272 2 6.60435 2 12.1272C2 17.65 6.47715 22.1272 12 22.1272Z" stroke="#6017A9" stroke-width="2" stroke-linecap="round" stroke-linejoin="round"/>
<path d="M12 13.1272C13.6569 13.1272 15 11.7841 15 10.1272C15 8.47034 13.6569 7.1272 12 7.1272C10.3431 7.1272 9 8.47034 9 10.1272C9 11.7841 10.3431 13.1272 12 13.1272Z" stroke="#6017A9" stroke-width="2" stroke-linecap="round" stroke-linejoin="round"/>
<path d="M7 20.7892V19.1272C7 18.5968 7.21071 18.0881 7.58579 17.713C7.96086 17.3379 8.46957 17.1272 9 17.1272H15C15.5304 17.1272 16.0391 17.3379 16.4142 17.713C16.7893 18.0881 17 18.5968 17 19.1272V20.7892" stroke="#6017A9" stroke-width="2" stroke-linecap="round" stroke-linejoin="round"/>
</svg>
