<svg width="109" height="75" viewBox="0 0 109 75" fill="none" xmlns="http://www.w3.org/2000/svg">
<path fill-rule="evenodd" clip-rule="evenodd" d="M104.044 33.6689C103.31 44.9285 98.2836 56.5292 88.9217 63.2446C80.2057 69.4963 68.2904 71.641 58.5687 66.3969C55.8839 64.9472 53.4795 63.0368 51.4946 60.7961L51.5044 60.7725C60.8682 55.451 68.2218 46.0682 68.061 34.8903C68.0189 32.0085 67.5542 28.6571 66.1016 26.1106C64.7106 23.6718 62.0563 22.2672 59.2764 22.276C53.5608 22.2937 48.4716 26.3066 45.3859 30.8097C42.2846 35.3363 40.6957 41.041 40.7515 46.5096C40.7957 50.8793 42.0101 55.053 44.0872 58.8053L44.0823 58.8112C38.3197 60.8539 32.0209 61.0391 26.2553 58.126C22.3041 56.1293 19.0645 53.0985 17.6001 49.2375C16.1435 45.3971 15.9289 41.7634 16.3974 37.6221C16.5385 36.3828 16.8081 35.0081 17.1678 33.6169H17.306L17.3786 33.5376C21.3445 34.0676 25.4172 33.5189 29.14 31.8428C34.2694 29.5325 39.8233 22.7112 35.9613 17.0466C32.3728 11.7849 24.783 13.5355 20.674 17.129C17.656 19.7687 15.6583 23.5317 14.1508 27.1849C14.088 27.3363 14.0263 27.4885 13.9655 27.6415C11.8238 26.7781 9.87512 25.4566 8.3117 23.6777C5.29169 20.2431 4.20268 15.1284 5.13093 10.6998C5.60339 8.44632 6.53263 6.29085 8.02842 4.52355C8.88218 3.51296 9.01842 2.04853 8.02842 1.05755C7.15114 0.181246 5.42107 0.0420569 4.56241 1.05755C-3.6419 10.7586 -0.429766 26.6938 11.3778 31.8575C11.7159 32.0052 12.0561 32.1443 12.3991 32.2748L12.4374 32.3073C10.4887 39.8071 10.6759 48.2397 14.9741 54.7355C18.3725 59.8707 24.1194 63.3417 30.0771 64.662C35.7643 65.9206 41.5318 65.1335 46.8651 63.0094L46.9268 63.0309C55.1115 73.2594 69.0784 76.5705 81.3202 72.5487C94.5559 68.2005 103.864 56.8096 107.373 43.5484C108.228 40.3216 108.729 36.9977 108.945 33.6689C109.032 32.3466 107.757 31.2184 106.495 31.2184C105.097 31.2184 104.131 32.3427 104.044 33.6689ZM13.9655 27.6415L14.0331 27.6684L13.9841 27.6813L13.9204 27.7567L13.9655 27.6415ZM48.5941 56.7841C48.5951 56.7841 48.5961 56.7831 48.5971 56.7821C48.5981 56.7831 48.5981 56.7841 48.5991 56.7851L48.5941 56.7841ZM54.2254 52.9152C52.5012 54.3728 50.6065 55.6833 48.5971 56.7821C46.1779 52.5829 45.0831 47.6979 45.9172 42.7084C46.6435 38.3602 48.4481 34.0689 51.5818 30.941C52.9796 29.5442 54.6989 28.3641 56.5181 27.7456C57.5356 27.3995 58.7128 27.0437 59.8008 27.1937C60.634 27.3074 61.0878 27.6103 61.4956 28.0602C61.5612 28.1325 61.6054 28.1785 61.6328 28.2052L61.6602 28.2464C61.7485 28.3791 61.8269 28.5148 61.9053 28.6518L61.9602 28.7483C61.9798 28.7828 62.0063 28.8371 62.0278 28.8806C62.119 29.1205 62.1984 29.3666 62.2768 29.6091L62.3023 29.6873C62.7111 30.9538 62.9992 32.2633 63.1002 33.5915C63.309 36.3223 62.9551 39.0061 62.1258 41.6135C60.6859 46.1459 57.8208 49.8766 54.2254 52.9152ZM62.0278 28.8806C61.9955 28.7951 61.9612 28.7103 61.9249 28.6268C62.0847 28.9984 62.0788 28.9856 62.0376 28.8999L62.0278 28.8806ZM61.5975 28.1141C61.5416 28.0423 61.4985 28.0007 61.6328 28.2052C61.7201 28.2878 61.6524 28.1859 61.5975 28.1141ZM18.7656 28.788L18.7469 28.8329L18.7117 28.783L18.7656 28.788ZM22.2159 22.6359C22.1982 22.6599 22.1777 22.6887 22.1522 22.723C21.1396 24.0982 20.2692 25.5724 19.5174 27.1065C19.2606 27.6314 19.0077 28.1961 18.7656 28.788C19.4899 28.8537 20.2192 28.8747 20.9485 28.8512C25.1594 28.715 30.6799 26.8036 32.0709 22.3466C32.606 20.6352 31.9866 19.0208 30.0644 18.6689C28.1961 18.3287 26.0857 19.2325 24.4498 20.3342L24.4331 20.3456C24.6242 20.1798 24.5174 20.251 24.4164 20.3282C24.3155 20.4052 24.2204 20.4882 24.4331 20.3456L24.4086 20.3666C24.3733 20.3966 24.339 20.4265 24.3037 20.4563C24.2037 20.5412 24.1038 20.6258 24.0057 20.7136C23.7764 20.9204 23.5539 21.137 23.3382 21.3576C23.0873 21.6173 22.8461 21.8849 22.6119 22.1594C22.5011 22.2888 22.3933 22.4201 22.2855 22.5514C22.258 22.5851 22.2355 22.613 22.2159 22.6359ZM22.212 22.624C22.1473 22.7073 22.0845 22.7945 22.2159 22.6359C22.3433 22.4613 22.2767 22.5407 22.212 22.624Z" fill="#F0D3E6"/>
</svg>
