<svg width="24" height="25" viewBox="0 0 24 25" fill="none" xmlns="http://www.w3.org/2000/svg">
<path d="M17 2.81653H7C5.89543 2.81653 5 3.71196 5 4.81653V8.81653C5 9.9211 5.89543 10.8165 7 10.8165H17C18.1046 10.8165 19 9.9211 19 8.81653V4.81653C19 3.71196 18.1046 2.81653 17 2.81653Z" stroke="#6017A9" stroke-width="2" stroke-linecap="round" stroke-linejoin="round"/>
<path d="M20 14.8165H4C2.89543 14.8165 2 15.712 2 16.8165V20.8165C2 21.9211 2.89543 22.8165 4 22.8165H20C21.1046 22.8165 22 21.9211 22 20.8165V16.8165C22 15.712 21.1046 14.8165 20 14.8165Z" stroke="#6017A9" stroke-width="2" stroke-linecap="round" stroke-linejoin="round"/>
<path d="M6 18.8165H8" stroke="#6017A9" stroke-width="2" stroke-linecap="round" stroke-linejoin="round"/>
<path d="M12 18.8165H18" stroke="#6017A9" stroke-width="2" stroke-linecap="round" stroke-linejoin="round"/>
</svg>
