<svg width="24" height="25" viewBox="0 0 24 25" fill="none" xmlns="http://www.w3.org/2000/svg">
<path d="M18 4.1272H6C4.89543 4.1272 4 5.02263 4 6.1272V18.1272C4 19.2318 4.89543 20.1272 6 20.1272H18C19.1046 20.1272 20 19.2318 20 18.1272V6.1272C20 5.02263 19.1046 4.1272 18 4.1272Z" stroke="#6017A9" stroke-width="2" stroke-linecap="round" stroke-linejoin="round"/>
<path d="M15 9.1272H9V15.1272H15V9.1272Z" stroke="#6017A9" stroke-width="2" stroke-linecap="round" stroke-linejoin="round"/>
<path d="M15 2.1272V4.1272" stroke="#6017A9" stroke-width="2" stroke-linecap="round" stroke-linejoin="round"/>
<path d="M15 20.1272V22.1272" stroke="#6017A9" stroke-width="2" stroke-linecap="round" stroke-linejoin="round"/>
<path d="M2 15.1272H4" stroke="#6017A9" stroke-width="2" stroke-linecap="round" stroke-linejoin="round"/>
<path d="M2 9.1272H4" stroke="#6017A9" stroke-width="2" stroke-linecap="round" stroke-linejoin="round"/>
<path d="M20 15.1272H22" stroke="#6017A9" stroke-width="2" stroke-linecap="round" stroke-linejoin="round"/>
<path d="M20 9.1272H22" stroke="#6017A9" stroke-width="2" stroke-linecap="round" stroke-linejoin="round"/>
<path d="M9 2.1272V4.1272" stroke="#6017A9" stroke-width="2" stroke-linecap="round" stroke-linejoin="round"/>
<path d="M9 20.1272V22.1272" stroke="#6017A9" stroke-width="2" stroke-linecap="round" stroke-linejoin="round"/>
</svg>
