<svg width="50" height="34" viewBox="0 0 50 34" fill="none" xmlns="http://www.w3.org/2000/svg">
<path d="M43.7813 5.1283H2.53956C1.54528 5.1283 0.739258 5.93432 0.739258 6.9286V31.7175C0.739258 32.7118 1.54528 33.5178 2.53956 33.5178H43.7813C44.7756 33.5178 45.5816 32.7118 45.5816 31.7175V6.9286C45.5816 5.93432 44.7756 5.1283 43.7813 5.1283Z" fill="#FFE9FC"/>
<path fill-rule="evenodd" clip-rule="evenodd" d="M46.27 6.32306C46.3941 6.49297 46.357 6.73122 46.1871 6.85528L23.6276 23.3351C23.4931 23.4333 23.3104 23.4328 23.1765 23.3337L0.893658 6.85394C0.724564 6.72889 0.688861 6.49036 0.81391 6.32127C0.939048 6.15218 1.17749 6.11647 1.34658 6.24152L23.4043 22.5549L45.7379 6.24027C45.9077 6.1162 46.1459 6.15325 46.27 6.32306Z" fill="#ECA9F7"/>
<path fill-rule="evenodd" clip-rule="evenodd" d="M19.2756 19.6333C19.3954 19.8061 19.3524 20.0435 19.1797 20.1634L1.05183 32.7467C0.87906 32.8666 0.64188 32.8238 0.522034 32.6509C0.402188 32.478 0.445067 32.2407 0.617929 32.1208L18.7457 19.5375C18.9185 19.4175 19.1557 19.4604 19.2756 19.6333Z" fill="#ECA9F6"/>
<path fill-rule="evenodd" clip-rule="evenodd" d="M25.5071 20.8153C25.6252 20.6413 25.862 20.596 26.0359 20.7141L44.5746 33.3038C44.7486 33.422 44.794 33.6589 44.6759 33.8329C44.5578 34.007 44.321 34.0523 44.147 33.9342L25.6084 21.3445C25.4344 21.2263 25.3891 20.9894 25.5071 20.8153Z" fill="#ECA9F6"/>
<path d="M48.6188 10.6156C46.4612 13.73 42.1517 14.5879 39.0147 12.5435C35.9009 10.5158 35.1191 6.39399 37.2463 3.32366C39.3737 0.253242 43.6255 -0.636543 46.7695 1.34728C49.9367 3.3477 50.776 7.50409 48.6212 10.6187L48.6188 10.6156Z" fill="#F06647"/>
</svg>
