<?xml version="1.0" encoding="UTF-8"?>
<svg id="Layer_1" data-name="Layer 1" xmlns="http://www.w3.org/2000/svg" viewBox="0 0 79.9 75.09">
  <defs>
    <style>
      .cls-1 {
        fill: #5399d4;
      }

      .cls-1, .cls-2, .cls-3, .cls-4, .cls-5 {
        stroke-width: 0px;
      }

      .cls-2 {
        fill: #08aa24;
      }

      .cls-3 {
        fill: #b085c0;
      }

      .cls-4 {
        fill: #fecc5c;
      }

      .cls-5 {
        fill: #fe6e4d;
      }
    </style>
  </defs>
  <path class="cls-1" d="M0,25.12c2.84-1.87,5.38-1.43,7.4,1.22,3,3.96,5.92,7.98,8.77,12.05,1.07,1.52,1.91,3.34.17,4.93-1.69,1.54-3.46.56-5.03-.38-5.12-3.07-8.36-7.82-11.31-12.82v-4.99Z"/>
  <path class="cls-2" d="M35.96,61.51c0,1.83.02,3.65,0,5.48-.03,2.58-.37,5.05-3.07,6.28-2.73,1.25-5-.12-6.76-1.85-7.14-7.06-9.35-15.85-7.97-25.54.48-3.37,3.26-5.36,6.46-6.3,6.57-1.93,13.27-3.05,20.15-2.62,5.04.32,6.14,1.91,5.66,7.05-.42,4.44-1.29,9.57,3.25,12.2,4.94,2.86,8.73-1.06,12.32-3.95,2.19-1.77,4.04-4.05,6.83-4.89,2.85-.86,5.54-.19,6.75,2.65,1.18,2.78-.96,4.67-3.22,5.26-10.14,2.63-18.49,7.48-24.11,16.72-1.38,2.27-4.47,3.86-7.48,2.68-2.93-1.15-3.64-4.05-4.09-6.94-.65-4.21-.26-8.27,1.36-12.21.5-1.22,1.02-2.45,1.4-3.72.71-2.35.22-4.62-2.16-5.37-2.85-.9-4.35,1.47-4.97,3.69-1.04,3.69-.97,7.55-.34,11.38Z"/>
  <path class="cls-5" d="M31.83,13.44c.17-3.58-.42-6.75.89-9.77.91-2.1,2.15-3.81,4.73-3.67,2.4.13,3.28,1.97,3.96,3.9.97,2.74.72,5.58.42,8.36-.56,5.26-1.21,10.45-.18,15.79.59,3.09-1.14,5.65-4.43,6.08-3.96.51-3.86-2.69-4.09-5.32-.46-5.27-.89-10.54-1.29-15.36Z"/>
  <path class="cls-4" d="M61.05,13.55c-2.06,5.82-4.6,12.82-8.49,19.2-.97,1.59-3.02,3-5.17,1.68-2.2-1.35-1.32-3.37-.72-5.34,1.21-3.96,2.27-7.97,3.33-11.97.78-2.92,1.82-5.74,3.89-7.98,1.39-1.5,3.24-2.58,5.37-1.66,2.06.89,1.93,2.89,1.79,6.07Z"/>
  <path class="cls-3" d="M28.64,32.29c-.17,1.95-.38,3.46-1.97,4.17-1.39.62-2.69-.08-3.64-.94-.95-.86-1.86-2-2.25-3.19-2.15-6.57-4.86-13.04-4.76-20.13.03-2.25.59-4.51,3.15-4.99,2.79-.53,3.82,1.9,4.43,3.84,2.25,7.07,1.88,14.77,5.03,21.25Z"/>
</svg>