<?xml version="1.0" encoding="UTF-8"?>
<svg id="Layer_1" data-name="Layer 1" xmlns="http://www.w3.org/2000/svg" viewBox="0 0 144.47 127.02">
  <defs>
    <style>
      .cls-1 {
        fill: #fff;
        stroke-width: 0px;
      }
    </style>
  </defs>
  <path class="cls-1" d="M0,77.05c2.84-1.87,5.38-1.43,7.4,1.22,3,3.96,5.92,7.98,8.77,12.05,1.07,1.52,1.91,3.34.17,4.93-1.69,1.54-3.46.56-5.03-.38-5.12-3.07-8.36-7.82-11.31-12.82v-4.99Z"/>
  <path class="cls-1" d="M141.87,69.3c-.09,6.06-.72,10.67-3.4,14.68-3.13,4.68-8.41,4.81-11.39.02-2.71-4.35-4.72-9.13-7.04-13.72-1.5-2.97-3.03-5.96-5.54-8.23-2.51-2.26-5.63-3.86-8.37-1.13-2.61,2.6-.98,5.61,1.15,7.98,1.1,1.22,2.5,2.19,3.78,3.24,5.36,4.36,8.77,9.93,10.24,16.65,1.49,6.78-2,10.71-8.9,10.02-4.2-.42-8.15-1.8-11.65-4.12-6.13-4.07-12.61-4.62-19.56-2.67-4.15,1.16-8.41,1.95-12.78,1.5-2.5-.26-4.63-1.14-5.24-3.81-.6-2.58.79-4.53,2.7-6.03,3.38-2.65,7.24-2.12,10.99-1.2,5.02,1.24,9.96,2.74,15.22,1.64,5.74-1.2,8.18-4.97,6.63-10.61-1.11-4.04-3.13-7.69-5.72-10.97-2.91-3.68-2.17-6.94,1.37-9.41,9.17-6.4,19.5-9.94,30.56-11.09,5.02-.52,8.45,2.65,10.84,6.73,3.94,6.73,5.41,14.2,6.1,20.54Z"/>
  <path class="cls-1" d="M35.96,113.44c0,1.83.02,3.65,0,5.48-.03,2.58-.37,5.05-3.07,6.28-2.73,1.25-5-.12-6.76-1.85-7.14-7.06-9.35-15.85-7.97-25.54.48-3.37,3.26-5.36,6.46-6.3,6.57-1.93,13.27-3.05,20.15-2.62,5.04.32,6.14,1.91,5.66,7.05-.42,4.44-1.29,9.57,3.25,12.2,4.94,2.86,8.73-1.06,12.32-3.95,2.19-1.77,4.04-4.05,6.83-4.89,2.85-.86,5.54-.19,6.75,2.65,1.18,2.78-.96,4.67-3.22,5.26-10.14,2.63-18.49,7.48-24.11,16.72-1.38,2.27-4.47,3.86-7.48,2.68-2.93-1.15-3.64-4.05-4.09-6.94-.65-4.21-.26-8.27,1.36-12.21.5-1.22,1.02-2.45,1.4-3.72.71-2.35.22-4.62-2.16-5.37-2.85-.9-4.35,1.47-4.97,3.69-1.04,3.69-.97,7.55-.34,11.38Z"/>
  <path class="cls-1" d="M78.96,10c.06-6.7,3.88-9.05,8.41-6.59,3.05,1.65,4.92,4.41,6.53,7.37,4.46,8.2,7.52,17.02,11.42,25.47,1.26,2.73,2.24,5.7-1.14,7.35-3.32,1.62-6.71.74-8.82-2.39-1.46-2.17-2.22-4.81-3.27-7.24-2.52-5.86-6.65-10.73-9.88-16.15-1.72-2.88-3.2-5.84-3.23-7.81Z"/>
  <path class="cls-1" d="M65.69,24.14c2.74.31,5.45,1.8,7.89,3.92,6.14,5.34,10.44,12.48,17.07,17.36,1.45,1.06,1.77,2.79,1.12,4.52-.69,1.85-2.27,2.23-4.03,2.29-2.77.1-5.24-.68-7.39-2.43-5.41-4.39-10.85-8.74-16.2-13.2-1.64-1.37-3.23-2.85-4.12-4.92-1.85-4.29.43-7.68,5.66-7.53Z"/>
  <path class="cls-1" d="M104.77,7.07c.26-3.07-.49-5.8,2.41-6.8,2.81-.97,4.71.86,6.38,2.8,2.22,2.58,3.34,5.74,4.13,8.95,1.46,5.94,2.71,11.93,3.95,17.91.26,1.27.31,2.66.11,3.95-.44,2.93-1.57,5.82-4.92,5.98-3.29.16-4.49-2.78-4.77-5.41-.83-7.84-4.03-14.96-6.29-22.37-.57-1.88-.77-3.87-.99-5.01Z"/>
  <path class="cls-1" d="M130.72,33.89c.95-5.66,1.98-12.53,3.3-19.33.47-2.44,1.67-5.12,4.63-5.06,2.82.06,4.21,2.57,4.9,5,2.39,8.38-.25,16-4.1,23.28-1.2,2.26-3.06,4.82-6.22,3.77-3.04-1.02-2.28-4.01-2.51-7.66Z"/>
  <path class="cls-1" d="M31.83,65.37c.17-3.58-.42-6.75.89-9.77.91-2.1,2.15-3.81,4.73-3.67,2.4.13,3.28,1.97,3.96,3.9.97,2.74.72,5.58.42,8.36-.56,5.26-1.21,10.45-.18,15.79.59,3.09-1.14,5.65-4.43,6.08-3.96.51-3.86-2.69-4.09-5.32-.46-5.27-.89-10.54-1.29-15.36Z"/>
  <path class="cls-1" d="M61.05,65.48c-2.06,5.82-4.6,12.82-8.49,19.2-.97,1.59-3.02,3-5.17,1.68-2.2-1.35-1.32-3.37-.72-5.34,1.21-3.96,2.27-7.97,3.33-11.97.78-2.92,1.82-5.74,3.89-7.98,1.39-1.5,3.24-2.58,5.37-1.66,2.06.89,1.93,2.89,1.79,6.07Z"/>
  <path class="cls-1" d="M28.64,84.22c-.17,1.95-.38,3.46-1.97,4.17-1.39.62-2.69-.08-3.64-.94-.95-.86-1.86-2-2.25-3.19-2.15-6.57-4.86-13.04-4.76-20.13.03-2.25.59-4.51,3.15-4.99,2.79-.53,3.82,1.9,4.43,3.84,2.25,7.07,1.88,14.77,5.03,21.25Z"/>
</svg>