<?xml version="1.0" encoding="UTF-8"?>
<svg id="Layer_1" data-name="Layer 1" xmlns="http://www.w3.org/2000/svg" viewBox="0 0 85.08 98.89">
  <defs>
    <style>
      .cls-1 {
        fill: #5399d4;
      }

      .cls-1, .cls-2, .cls-3, .cls-4, .cls-5 {
        stroke-width: 0px;
      }

      .cls-2 {
        fill: #04a921;
      }

      .cls-3 {
        fill: #b085c0;
      }

      .cls-4 {
        fill: #fecc5c;
      }

      .cls-5 {
        fill: #fe6e4d;
      }
    </style>
  </defs>
  <path class="cls-2" d="M82.48,69.3c-.09,6.06-.72,10.67-3.4,14.68-3.13,4.68-8.41,4.81-11.39.02-2.71-4.35-4.72-9.13-7.04-13.72-1.5-2.97-3.03-5.96-5.54-8.23-2.51-2.26-5.63-3.86-8.37-1.13-2.61,2.6-.98,5.61,1.15,7.98,1.1,1.22,2.5,2.19,3.78,3.24,5.36,4.36,8.77,9.93,10.24,16.65,1.49,6.78-2,10.71-8.9,10.02-4.2-.42-8.15-1.8-11.65-4.12-6.13-4.07-12.61-4.62-19.56-2.67-4.15,1.16-8.41,1.95-12.78,1.5-2.5-.26-4.63-1.14-5.24-3.81-.6-2.58.79-4.53,2.7-6.03,3.38-2.65,7.24-2.12,10.99-1.2,5.02,1.24,9.96,2.74,15.22,1.64,5.74-1.2,8.18-4.97,6.63-10.61-1.11-4.04-3.13-7.69-5.72-10.97-2.91-3.68-2.17-6.94,1.37-9.41,9.17-6.4,19.5-9.94,30.56-11.09,5.02-.52,8.45,2.65,10.84,6.73,3.94,6.73,5.41,14.2,6.1,20.54Z"/>
  <path class="cls-5" d="M19.58,10c.06-6.7,3.88-9.05,8.41-6.59,3.05,1.65,4.92,4.41,6.53,7.37,4.46,8.2,7.52,17.02,11.42,25.47,1.26,2.73,2.24,5.7-1.14,7.35-3.32,1.62-6.71.74-8.82-2.39-1.46-2.17-2.22-4.81-3.27-7.24-2.52-5.86-6.65-10.73-9.88-16.15-1.72-2.88-3.2-5.84-3.23-7.81Z"/>
  <path class="cls-4" d="M6.3,24.14c2.74.31,5.45,1.8,7.89,3.92,6.14,5.34,10.44,12.48,17.07,17.36,1.45,1.06,1.77,2.79,1.12,4.52-.69,1.85-2.27,2.23-4.03,2.29-2.77.1-5.24-.68-7.39-2.43-5.41-4.39-10.85-8.74-16.2-13.2-1.64-1.37-3.23-2.85-4.12-4.92-1.85-4.29.43-7.68,5.66-7.53Z"/>
  <path class="cls-3" d="M45.38,7.07c.26-3.07-.49-5.8,2.41-6.8,2.81-.97,4.71.86,6.38,2.8,2.22,2.58,3.34,5.74,4.13,8.95,1.46,5.94,2.71,11.93,3.95,17.91.26,1.27.31,2.66.11,3.95-.44,2.93-1.57,5.82-4.92,5.98-3.29.16-4.49-2.78-4.77-5.41-.83-7.84-4.03-14.96-6.29-22.37-.57-1.88-.77-3.87-.99-5.01Z"/>
  <path class="cls-1" d="M71.33,33.89c.95-5.66,1.98-12.53,3.3-19.33.47-2.44,1.67-5.12,4.63-5.06,2.82.06,4.21,2.57,4.9,5,2.39,8.38-.25,16-4.1,23.28-1.2,2.26-3.06,4.82-6.22,3.77-3.04-1.02-2.28-4.01-2.51-7.66Z"/>
</svg>