<?xml version="1.0" encoding="UTF-8"?>
<svg id="Layer_1" data-name="Layer 1" xmlns="http://www.w3.org/2000/svg" viewBox="0 0 290.97 45.02">
  <defs>
    <style>
      .cls-1 {
        fill: #fff;
        stroke-width: 0px;
      }
    </style>
  </defs>
  <path class="cls-1" d="M10.61,14.72c3.56-1.52,3.73-4.78,4.79-7.45.61-1.53.78-3.24,1.45-4.74C17.81.35,19.79.11,21.92.41c2.22.32,3.05,1.81,3.15,3.83.21,4.38-1.31,8.23-4.29,11.32-1.66,1.72-1.53,2.45.13,4.16,2.95,3.04,4.33,7.03,4.77,11.25.28,2.69-.29,5.05-3.33,5.85-2.96.78-4.75-.72-5.82-3.33-.94-2.3-1.82-4.62-2.77-6.92-.68-1.64-1.33-3.34-4.02-3.99,0,2.98.02,5.56,0,8.15-.03,3.11-.88,5.7-4.55,5.97-3.67.27-4.24-2.39-4.66-5.18C-.79,22.75-.12,13.97.74,5.2,1.03,2.19,2.67.3,6.03.57c3.38.27,3.76,2.61,3.82,5.31.07,2.89-.46,5.87.76,8.84ZM3.98,16.95c-.71,5.46,1.58,5.18,4.91,3.17-2.09-.07-3.12-1.92-4.91-3.17Z"/>
  <path class="cls-1" d="M264.67,18.78c.29-4.3.52-8.11.82-11.91.24-3.07.53-6.29,4.7-6.28,4.35,0,4.64,3.34,4.25,6.36-.67,5.19.77,6.99,6.43,6.69,6.92-.36,10.89,5.92,9.67,13.72-1.08,6.9-6.7,11.02-13.13,9.68-1.59-.33-3.01-1.17-4.8-.96-6.24.75-6.62.51-7.37-5.87-.46-3.94-.42-7.94-.58-11.43ZM278.7,21.42l.14-.14c-1.89-1.28-4.11-1.68-4.35,1.07-.21,2.39-1.98,6,1.88,7.19,2.97.92,5.07-.56,5.26-3.96.22-1.09.32-2.15-.51-3.07-.66-.69-.91-2.27-2.42-1.09ZM269.55,12.47c-.41,3.96-2.07,8-.22,11.89.44-3.97.07-7.94.22-11.89Z"/>
  <path class="cls-1" d="M66.59,21.22c-.03,4.79.58,9.62-.51,14.37-.51,2.24-1.52,4.7-4.12,3.9-3.27-1.01-6.17.13-9.23.33-7.1.47-11.7-3.4-12.04-10.14-.4-7.83,4.24-13.79,11.33-13.2,5.38.45,6.2-1.63,5.54-5.96-.1-.65,0-1.32.04-1.99.16-2.76,1.11-4.88,4.31-5.02,3.3-.14,4.42,2.21,4.59,4.78.28,4.29.08,8.61.08,12.92ZM50.56,28.46c-.89.49-1.04,1.21-.49,2.01,1.52,2.19,3.92,3.09,5.99,1.76,2.84-1.82,2.03-5.38,1.04-7.58-1.04-2.33-3.81-1.8-5.83-.12-2.01.99-1.52,2.43-.71,3.93ZM50.55,20.08c2.97-.86,5.72,1.35,8.67.25-2.96.27-5.54-3.16-8.67-.25Z"/>
  <path class="cls-1" d="M262.22,22.88c-.14,2.16-.24,4.32-.42,6.47-.58,6.69-1.07,7.05-7.78,6.37-.94-.09-1.93.25-2.89.48-8.63,2.04-13.62-.79-14.85-8.44-1.3-8.06,3.87-14.52,12.11-14.85,2.24-.09,3.87-.42,5.65-2.09,2.98-2.8,6.42-1.4,7.47,2.62.17.64.21,1.31.26,1.97.16,2.49.3,4.97.45,7.47ZM246.19,27.57h.04c1.19,2.84,3.46,2.43,5.26,1.23,2.51-1.68,1-4.53,1.12-6.85.11-2.18-1.86-1.97-3.28-1.87-2.46.17-3.89,1.71-4.35,4.05-.26,1.3-.26,2.66,1.2,3.44ZM257.33,20.74c-.2-.03-.39-.06-.59-.09v9.22c.2,0,.39.01.59.02v-9.15Z"/>
  <path class="cls-1" d="M179.6,35.92c.41-2.64-.35-5.11-2.48-7.66-3.1-3.71-4.57-8.41-5.52-13.15-.52-2.59-.45-5.01,2.92-5.81,3.11-.74,4.66.71,5.53,3.48.89,2.84,1.74,5.71,2.87,8.46.94,2.3,2.5,2.2,3.36.01,1.02-2.6,1.69-5.36,2.29-8.1.69-3.12,2.63-4.09,5.49-3.46,2.93.64,3.38,2.81,2.93,5.38-.6,3.46-1.51,6.98-3.5,9.75-3.37,4.73-5.43,9.54-5.05,15.49.16,2.59-1.27,4.88-4.59,4.6-3.09-.26-4.29-2.13-4.25-5.04.02-1.16,0-2.32,0-3.93ZM186.74,27.63c.34-.34.67-.68,1.01-1.02.06-.17.12-.33.18-.5-.1.13-.19.26-.29.4-.34.34-.68.67-1.01,1.01-.06.17-.12.33-.18.5.1-.13.19-.26.29-.39ZM183.99,28.1c-.28-.16-.52-.42-.77-.42-.26,0-.52.23-.78.36.24.15.48.42.73.43.25.01.52-.22.82-.36ZM181.43,25.75c-.04-.14-.06-.31-.14-.42-.03-.04-.24.06-.36.09.04.14.06.31.14.42.03.04.24-.06.36-.09Z"/>
  <path class="cls-1" d="M220.81,17.39c0,1.33,0,2.66,0,3.99q0,7.76,7.6,8.48c2.65.26,5.6.26,5.73,4.04.12,3.49-1.68,5.74-5.03,6.41-3.94.79-7.98.77-11.9-.08-3.17-.69-5.26-2.8-5.77-6.13-1.25-8.27-1.17-16.54.1-24.8.45-2.95,2.05-4.93,5.37-4.66,3.64.29,3.96,2.91,3.92,5.76-.03,2.33,0,4.65,0,6.98ZM216.33,8.64c-.16,0-.32-.01-.48-.02-.14,2.37-.27,4.73-.41,7.1.3.01.59.03.89.04v-7.12ZM215.39,19.96c.02.11,0,.26.07.31.09.07.24.06.37.08-.03-.18-.07-.35-.1-.53-.11.05-.23.09-.34.14Z"/>
  <path class="cls-1" d="M163.45,40.35c-6.68,0-9.22-2.59-10.34-9.74-.4-2.56.49-5.5-3.82-6.24-2.58-.44-2.39-4.99.36-5.61,3.3-.74,3.18-2.67,3.15-5.03-.02-2.16.12-4.27.74-6.39.61-2.07,1.82-3.07,3.91-3.1,2.18-.04,3.4,1.19,3.83,3.18.28,1.28.45,2.63.38,3.93-.21,3.9-.62,7.64,5.29,7.36,1.72-.08,2.67,1.86,2.39,3.73-.31,2.1-2.06,2.24-3.75,2.53-1.39.24-3.71-.9-3.67,1.95.03,1.95.7,3.71,2.87,4.12,3.14.59,6.14,1.22,5.18,5.48-.9,3.98-4.57,3.05-6.52,3.83Z"/>
  <path class="cls-1" d="M84.98,40.36c-6.24-.1-8.67-2.55-9.78-9.46-.44-2.75.14-5.57-4.03-6.69-2.47-.66-2.46-4.64.23-5.28,3.95-.93,3.27-3.35,3.43-5.89.12-1.81.41-3.6.69-5.39.37-2.32,1.78-3.44,4.14-3.4,2.52.05,3.42,1.79,3.82,3.85.25,1.29.3,2.65.21,3.97-.26,3.67-.46,7.02,4.98,6.57,1.83-.15,2.84,1.72,2.72,3.53-.16,2.38-2.1,2.58-3.99,2.83-1.28.17-3.34-.78-3.46,1.64-.11,2.15.64,4.05,3.05,4.47,2.99.52,5.79,1.18,5.04,5.13-.81,4.26-4.56,3.55-7.06,4.13Z"/>
  <path class="cls-1" d="M119.31,30.04c3.01-4.09,3.06-8.47,3.69-12.66.45-3,.98-5.55,5.09-5.04,4.19.52,3.96,3.29,3.65,6.23-.55,5.34-1.94,10.5-4.48,15.2-3.79,7.02-12.01,7.09-15.91.17-2.97-5.27-4.23-11.17-5.18-17.08-.4-2.51.52-4.75,3.45-5.14,2.87-.39,4.63.74,5.29,3.87,1.01,4.76,1.43,9.76,4.4,14.44Z"/>
  <path class="cls-1" d="M103.53,24.68c-.17,2.81-.31,5.63-.52,8.44-.19,2.59-1.76,3.9-4.23,3.97-2.51.07-4.12-1.31-4.41-3.8-.63-5.46-.41-10.93.17-16.38.25-2.32,1.7-3.5,4.02-3.6,2.48-.1,4.39.96,4.71,3.44.33,2.6.07,5.28.07,7.93.06,0,.13,0,.19,0Z"/>
  <path class="cls-1" d="M37.8,25.45c0,2.48.05,4.96-.01,7.44-.06,2.58-1.56,3.94-4.03,4.15-2.54.22-4.35-1.17-4.6-3.55-.6-5.59-.65-11.22.2-16.81.35-2.28,1.89-3.36,4.22-3.34,2.51.02,4.24,1.15,4.44,3.69.21,2.79.05,5.61.05,8.42-.09,0-.17,0-.26,0Z"/>
  <path class="cls-1" d="M135.63,25.34c0-2.48-.07-4.96.02-7.44.1-2.94,1.55-4.66,4.65-4.54,2.8.1,4.32,1.73,4.35,4.41.05,4.96-.01,9.92-.27,14.88-.15,2.87-1.86,4.63-4.88,4.4-2.8-.21-3.96-2.09-3.98-4.75-.02-2.31,0-4.63,0-6.95.04,0,.08,0,.12,0Z"/>
  <path class="cls-1" d="M139.8-.11c3.32.33,5.28,2.2,5.47,5.42.2,3.18-1.74,5.05-4.82,5.17-3.19.13-4.85-1.74-4.95-4.96-.09-3.06,1.04-5.16,4.3-5.64Z"/>
  <path class="cls-1" d="M28.82,5.14C29.15,2.22,30.36-.15,33.61,0c3.18.14,5.05,2.16,5.15,5.47.1,3.26-1.84,4.91-4.82,5.02-3.47.13-4.84-2.19-5.12-5.35Z"/>
  <path class="cls-1" d="M94.17,5.35c.17-2.94,1.24-5.42,4.57-5.33,3.23.09,5.09,2.13,5.18,5.48.09,3.32-1.88,4.93-4.9,4.99-3.25.07-4.62-2.11-4.86-5.14Z"/>
  <path class="cls-1" d="M3.98,16.95c1.79,1.25,2.82,3.1,4.91,3.17-3.32,2.01-5.62,2.29-4.91-3.17Z"/>
  <path class="cls-1" d="M269.55,12.47c-.15,3.95.22,7.91-.22,11.89-1.85-3.89-.19-7.93.22-11.89Z"/>
  <path class="cls-1" d="M50.55,20.08c3.13-2.92,5.71.52,8.67.25-2.95,1.1-5.7-1.11-8.67-.25Z"/>
  <path class="cls-1" d="M183.99,28.1c-.29.14-.56.38-.82.36-.25-.01-.49-.28-.73-.43.26-.13.52-.37.78-.36.25,0,.5.26.77.42Z"/>
  <path class="cls-1" d="M181.43,25.75c-.13.04-.33.13-.36.09-.09-.11-.1-.28-.14-.42.13-.03.33-.13.36-.09.09.11.1.28.14.42Z"/>
  <path class="cls-1" d="M187.75,26.62c-.34.34-.67.68-1.01,1.02l-.11-.11c.34-.34.68-.67,1.01-1.01l.11.1Z"/>
  <path class="cls-1" d="M187.64,26.52c.1-.13.19-.26.29-.4-.06.17-.12.33-.18.5,0,0-.11-.1-.11-.1Z"/>
  <path class="cls-1" d="M186.74,27.63c-.1.13-.19.26-.29.39.06-.17.12-.33.18-.5,0,0,.11.11.11.11Z"/>
  <path class="cls-1" d="M216.33,8.64v7.12c-.3-.01-.59-.03-.89-.04.14-2.37.27-4.73.41-7.1.16,0,.32.01.48.02Z"/>
  <path class="cls-1" d="M215.39,19.96c.11-.05.23-.09.34-.14.03.18.07.35.1.53-.13-.02-.28-.01-.37-.08-.06-.05-.05-.2-.07-.31Z"/>
</svg>