<?xml version="1.0" encoding="UTF-8"?>
<svg id="Layer_1" data-name="Layer 1" xmlns="http://www.w3.org/2000/svg" viewBox="0 0 370 150.34">
  <defs>
    <style>
      .cls-1 {
        fill: #fff;
        stroke-width: 0px;
      }
    </style>
  </defs>
  <path class="cls-1" d="M0,77.05c2.84-1.87,5.38-1.43,7.4,1.22,3,3.96,5.92,7.98,8.77,12.05,1.07,1.52,1.91,3.34.17,4.93-1.69,1.54-3.46.56-5.03-.38-5.12-3.07-8.36-7.82-11.31-12.82v-4.99Z"/>
  <path class="cls-1" d="M141.87,69.3c-.09,6.06-.72,10.67-3.4,14.68-3.13,4.68-8.41,4.81-11.39.02-2.71-4.35-4.72-9.13-7.04-13.72-1.5-2.97-3.03-5.96-5.54-8.23-2.51-2.26-5.63-3.86-8.37-1.13-2.61,2.6-.98,5.61,1.15,7.98,1.1,1.22,2.5,2.19,3.78,3.24,5.36,4.36,8.77,9.93,10.24,16.65,1.49,6.78-2,10.71-8.9,10.02-4.2-.42-8.15-1.8-11.65-4.12-6.13-4.07-12.61-4.62-19.56-2.67-4.15,1.16-8.41,1.95-12.78,1.5-2.5-.26-4.63-1.14-5.24-3.81-.6-2.58.79-4.53,2.7-6.03,3.38-2.65,7.24-2.12,10.99-1.2,5.02,1.24,9.96,2.74,15.22,1.64,5.74-1.2,8.18-4.97,6.63-10.61-1.11-4.04-3.13-7.69-5.72-10.97-2.91-3.68-2.17-6.94,1.37-9.41,9.17-6.4,19.5-9.94,30.56-11.09,5.02-.52,8.45,2.65,10.84,6.73,3.94,6.73,5.41,14.2,6.1,20.54Z"/>
  <path class="cls-1" d="M35.96,113.44c0,1.83.02,3.65,0,5.48-.03,2.58-.37,5.05-3.07,6.28-2.73,1.25-5-.12-6.76-1.85-7.14-7.06-9.35-15.85-7.97-25.54.48-3.37,3.26-5.36,6.46-6.3,6.57-1.93,13.27-3.05,20.15-2.62,5.04.32,6.14,1.91,5.66,7.05-.42,4.44-1.29,9.57,3.25,12.2,4.94,2.86,8.73-1.06,12.32-3.95,2.19-1.77,4.04-4.05,6.83-4.89,2.85-.86,5.54-.19,6.75,2.65,1.18,2.78-.96,4.67-3.22,5.26-10.14,2.63-18.49,7.48-24.11,16.72-1.38,2.27-4.47,3.86-7.48,2.68-2.93-1.15-3.64-4.05-4.09-6.94-.65-4.21-.26-8.27,1.36-12.21.5-1.22,1.02-2.45,1.4-3.72.71-2.35.22-4.62-2.16-5.37-2.85-.9-4.35,1.47-4.97,3.69-1.04,3.69-.97,7.55-.34,11.38Z"/>
  <path class="cls-1" d="M78.96,10c.06-6.7,3.88-9.05,8.41-6.59,3.05,1.65,4.92,4.41,6.53,7.37,4.46,8.2,7.52,17.02,11.42,25.47,1.26,2.73,2.24,5.7-1.14,7.35-3.32,1.62-6.71.74-8.82-2.39-1.46-2.17-2.22-4.81-3.27-7.24-2.52-5.86-6.65-10.73-9.88-16.15-1.72-2.88-3.2-5.84-3.23-7.81Z"/>
  <path class="cls-1" d="M65.69,24.14c2.74.31,5.45,1.8,7.89,3.92,6.14,5.34,10.44,12.48,17.07,17.36,1.45,1.06,1.77,2.79,1.12,4.52-.69,1.85-2.27,2.23-4.03,2.29-2.77.1-5.24-.68-7.39-2.43-5.41-4.39-10.85-8.74-16.2-13.2-1.64-1.37-3.23-2.85-4.12-4.92-1.85-4.29.43-7.68,5.66-7.53Z"/>
  <path class="cls-1" d="M104.77,7.07c.26-3.07-.49-5.8,2.41-6.8,2.81-.97,4.71.86,6.38,2.8,2.22,2.58,3.34,5.74,4.13,8.95,1.46,5.94,2.71,11.93,3.95,17.91.26,1.27.31,2.66.11,3.95-.44,2.93-1.57,5.82-4.92,5.98-3.29.16-4.49-2.78-4.77-5.41-.83-7.84-4.03-14.96-6.29-22.37-.57-1.88-.77-3.87-.99-5.01Z"/>
  <path class="cls-1" d="M130.72,33.89c.95-5.66,1.98-12.53,3.3-19.33.47-2.44,1.67-5.12,4.63-5.06,2.82.06,4.21,2.57,4.9,5,2.39,8.38-.25,16-4.1,23.28-1.2,2.26-3.06,4.82-6.22,3.77-3.04-1.02-2.28-4.01-2.51-7.66Z"/>
  <path class="cls-1" d="M31.83,65.37c.17-3.58-.42-6.75.89-9.77.91-2.1,2.15-3.81,4.73-3.67,2.4.13,3.28,1.97,3.96,3.9.97,2.74.72,5.58.42,8.36-.56,5.26-1.21,10.45-.18,15.79.59,3.09-1.14,5.65-4.43,6.08-3.96.51-3.86-2.69-4.09-5.32-.46-5.27-.89-10.54-1.29-15.36Z"/>
  <path class="cls-1" d="M61.05,65.48c-2.06,5.82-4.6,12.82-8.49,19.2-.97,1.59-3.02,3-5.17,1.68-2.2-1.35-1.32-3.37-.72-5.34,1.21-3.96,2.27-7.97,3.33-11.97.78-2.92,1.82-5.74,3.89-7.98,1.39-1.5,3.24-2.58,5.37-1.66,2.06.89,1.93,2.89,1.79,6.07Z"/>
  <path class="cls-1" d="M28.64,84.22c-.17,1.95-.38,3.46-1.97,4.17-1.39.62-2.69-.08-3.64-.94-.95-.86-1.86-2-2.25-3.19-2.15-6.57-4.86-13.04-4.76-20.13.03-2.25.59-4.51,3.15-4.99,2.79-.53,3.82,1.9,4.43,3.84,2.25,7.07,1.88,14.77,5.03,21.25Z"/>
  <g>
    <path class="cls-1" d="M89.85,120.14c3.56-1.52,3.73-4.78,4.79-7.45.61-1.53.78-3.24,1.45-4.74.97-2.18,2.95-2.42,5.07-2.12,2.22.32,3.05,1.81,3.15,3.83.21,4.38-1.31,8.23-4.29,11.32-1.66,1.72-1.53,2.45.13,4.16,2.95,3.04,4.33,7.03,4.77,11.25.28,2.69-.29,5.05-3.33,5.85-2.96.78-4.75-.72-5.82-3.33-.94-2.3-1.82-4.62-2.77-6.92-.68-1.64-1.33-3.34-4.02-3.99,0,2.98.02,5.56,0,8.15-.03,3.11-.88,5.7-4.55,5.97-3.67.27-4.24-2.39-4.66-5.18-1.32-8.79-.65-17.57.2-26.33.29-3.01,1.93-4.9,5.29-4.63,3.38.27,3.76,2.61,3.82,5.31.07,2.89-.46,5.87.76,8.84ZM83.22,122.36c-.71,5.46,1.58,5.18,4.91,3.17-2.09-.07-3.12-1.92-4.91-3.17Z"/>
    <path class="cls-1" d="M343.91,124.2c.29-4.3.52-8.11.82-11.91.24-3.07.53-6.29,4.7-6.28,4.35,0,4.64,3.34,4.25,6.36-.67,5.19.77,6.99,6.43,6.69,6.92-.36,10.89,5.92,9.67,13.72-1.08,6.9-6.7,11.02-13.13,9.68-1.59-.33-3.01-1.17-4.8-.96-6.24.75-6.62.51-7.37-5.87-.46-3.94-.42-7.94-.58-11.43ZM357.94,126.84l.14-.14c-1.89-1.28-4.11-1.68-4.35,1.07-.21,2.39-1.98,6,1.88,7.19,2.97.92,5.07-.56,5.26-3.96.22-1.09.32-2.15-.51-3.07-.66-.69-.91-2.27-2.42-1.09ZM348.79,117.88c-.41,3.96-2.07,8-.22,11.89.44-3.97.07-7.94.22-11.89Z"/>
    <path class="cls-1" d="M145.83,126.64c-.03,4.79.58,9.62-.51,14.37-.51,2.24-1.52,4.7-4.12,3.9-3.27-1.01-6.17.13-9.23.33-7.1.47-11.7-3.4-12.04-10.14-.4-7.83,4.24-13.79,11.33-13.2,5.38.45,6.2-1.63,5.54-5.96-.1-.65,0-1.32.04-1.99.16-2.76,1.11-4.88,4.31-5.02,3.3-.14,4.42,2.21,4.59,4.78.28,4.29.08,8.61.08,12.92ZM129.8,133.88c-.89.49-1.04,1.21-.49,2.01,1.52,2.19,3.92,3.09,5.99,1.76,2.84-1.82,2.03-5.38,1.04-7.58-1.04-2.33-3.81-1.8-5.83-.12-2.01.99-1.52,2.43-.71,3.93ZM129.79,125.5c2.97-.86,5.72,1.35,8.67.25-2.96.27-5.54-3.16-8.67-.25Z"/>
    <path class="cls-1" d="M341.46,128.3c-.14,2.16-.24,4.32-.42,6.47-.58,6.69-1.07,7.05-7.78,6.37-.94-.09-1.93.25-2.89.48-8.63,2.04-13.62-.79-14.85-8.44-1.3-8.06,3.87-14.52,12.11-14.85,2.24-.09,3.87-.42,5.65-2.09,2.98-2.8,6.42-1.4,7.47,2.62.17.64.21,1.31.26,1.97.16,2.49.3,4.97.45,7.47ZM325.43,132.99h.04c1.19,2.84,3.46,2.43,5.26,1.23,2.51-1.68,1-4.53,1.12-6.85.11-2.18-1.86-1.97-3.28-1.87-2.46.17-3.89,1.71-4.35,4.05-.26,1.3-.26,2.66,1.2,3.44ZM336.57,126.15c-.2-.03-.39-.06-.59-.09v9.22c.2,0,.39.01.59.02v-9.15Z"/>
    <path class="cls-1" d="M258.84,141.34c.41-2.64-.35-5.11-2.48-7.66-3.1-3.71-4.57-8.41-5.52-13.15-.52-2.59-.45-5.01,2.92-5.81,3.11-.74,4.66.71,5.53,3.48.89,2.84,1.74,5.71,2.87,8.46.94,2.3,2.5,2.2,3.36.01,1.02-2.6,1.69-5.36,2.29-8.1.69-3.12,2.63-4.09,5.49-3.46,2.93.64,3.38,2.81,2.93,5.38-.6,3.46-1.51,6.98-3.5,9.75-3.37,4.73-5.43,9.54-5.05,15.49.16,2.59-1.27,4.88-4.59,4.6-3.09-.26-4.29-2.13-4.25-5.04.02-1.16,0-2.32,0-3.93ZM265.98,133.05c.34-.34.67-.68,1.01-1.02.06-.17.12-.33.18-.5-.1.13-.19.26-.29.4-.34.34-.68.67-1.01,1.01-.06.17-.12.33-.18.5.1-.13.19-.26.29-.39ZM263.23,133.52c-.28-.16-.52-.42-.77-.42-.26,0-.52.23-.78.36.24.15.48.42.73.43.25.01.52-.22.82-.36ZM260.68,131.16c-.04-.14-.06-.31-.14-.42-.03-.04-.24.06-.36.09.04.14.06.31.14.42.03.04.24-.06.36-.09Z"/>
    <path class="cls-1" d="M300.06,122.8c0,1.33,0,2.66,0,3.99q0,7.76,7.6,8.48c2.65.26,5.6.26,5.73,4.04.12,3.49-1.68,5.74-5.03,6.41-3.94.79-7.98.77-11.9-.08-3.17-.69-5.26-2.8-5.77-6.13-1.25-8.27-1.17-16.54.1-24.8.45-2.95,2.05-4.93,5.37-4.66,3.64.29,3.96,2.91,3.92,5.76-.03,2.33,0,4.65,0,6.98ZM295.57,114.06c-.16,0-.32-.01-.48-.02-.14,2.37-.27,4.73-.41,7.1.3.01.59.03.89.04v-7.12ZM294.63,125.38c.02.11,0,.26.07.31.09.07.24.06.37.08-.03-.18-.07-.35-.1-.53-.11.05-.23.09-.34.14Z"/>
    <path class="cls-1" d="M242.69,145.77c-6.68,0-9.22-2.59-10.34-9.74-.4-2.56.49-5.5-3.82-6.24-2.58-.44-2.39-4.99.36-5.61,3.3-.74,3.18-2.67,3.15-5.03-.02-2.16.12-4.27.74-6.39.61-2.07,1.82-3.07,3.91-3.1,2.18-.04,3.4,1.19,3.83,3.18.28,1.28.45,2.63.38,3.93-.21,3.9-.62,7.64,5.29,7.36,1.72-.08,2.67,1.86,2.39,3.73-.31,2.1-2.06,2.24-3.75,2.53-1.39.24-3.71-.9-3.67,1.95.03,1.95.7,3.71,2.87,4.12,3.14.59,6.14,1.22,5.18,5.48-.9,3.98-4.57,3.05-6.52,3.83Z"/>
    <path class="cls-1" d="M164.22,145.77c-6.24-.1-8.67-2.55-9.78-9.46-.44-2.75.14-5.57-4.03-6.69-2.47-.66-2.46-4.64.23-5.28,3.95-.93,3.27-3.35,3.43-5.89.12-1.81.41-3.6.69-5.39.37-2.32,1.78-3.44,4.14-3.4,2.52.05,3.42,1.79,3.82,3.85.25,1.29.3,2.65.21,3.97-.26,3.67-.46,7.02,4.98,6.57,1.83-.15,2.84,1.72,2.72,3.53-.16,2.38-2.1,2.58-3.99,2.83-1.28.17-3.34-.78-3.46,1.64-.11,2.15.64,4.05,3.05,4.47,2.99.52,5.79,1.18,5.04,5.13-.81,4.26-4.56,3.55-7.06,4.13Z"/>
    <path class="cls-1" d="M198.55,135.45c3.01-4.09,3.06-8.47,3.69-12.66.45-3,.98-5.55,5.09-5.04,4.19.52,3.96,3.29,3.65,6.23-.55,5.34-1.94,10.5-4.48,15.2-3.79,7.02-12.01,7.09-15.91.17-2.97-5.27-4.23-11.17-5.18-17.08-.4-2.51.52-4.75,3.45-5.14,2.87-.39,4.63.74,5.29,3.87,1.01,4.76,1.43,9.76,4.4,14.44Z"/>
    <path class="cls-1" d="M182.77,130.09c-.17,2.81-.31,5.63-.52,8.44-.19,2.59-1.76,3.9-4.23,3.97-2.51.07-4.12-1.31-4.41-3.8-.63-5.46-.41-10.93.17-16.38.25-2.32,1.7-3.5,4.02-3.6,2.48-.1,4.39.96,4.71,3.44.33,2.6.07,5.28.07,7.93.06,0,.13,0,.19,0Z"/>
    <path class="cls-1" d="M117.05,130.87c0,2.48.05,4.96-.01,7.44-.06,2.58-1.56,3.94-4.03,4.15-2.54.22-4.35-1.17-4.6-3.55-.6-5.59-.65-11.22.2-16.81.35-2.28,1.89-3.36,4.22-3.34,2.51.02,4.24,1.15,4.44,3.69.21,2.79.05,5.61.05,8.42-.09,0-.17,0-.26,0Z"/>
    <path class="cls-1" d="M214.88,130.76c0-2.48-.07-4.96.02-7.44.1-2.94,1.55-4.66,4.65-4.54,2.8.1,4.32,1.73,4.35,4.41.05,4.96-.01,9.92-.27,14.88-.15,2.87-1.86,4.63-4.88,4.4-2.8-.21-3.96-2.09-3.98-4.75-.02-2.31,0-4.63,0-6.95.04,0,.08,0,.12,0Z"/>
    <path class="cls-1" d="M219.04,105.31c3.32.33,5.28,2.2,5.47,5.42.2,3.18-1.74,5.05-4.82,5.17-3.19.13-4.85-1.74-4.95-4.96-.09-3.06,1.04-5.16,4.3-5.64Z"/>
    <path class="cls-1" d="M108.07,110.56c.33-2.92,1.54-5.29,4.79-5.14,3.18.14,5.05,2.16,5.15,5.47.1,3.26-1.84,4.91-4.82,5.02-3.47.13-4.84-2.19-5.12-5.35Z"/>
    <path class="cls-1" d="M173.41,110.76c.17-2.94,1.24-5.42,4.57-5.33,3.23.09,5.09,2.13,5.18,5.48.09,3.32-1.88,4.93-4.9,4.99-3.25.07-4.62-2.11-4.86-5.14Z"/>
    <path class="cls-1" d="M83.22,122.36c1.79,1.25,2.82,3.1,4.91,3.17-3.32,2.01-5.62,2.29-4.91-3.17Z"/>
    <path class="cls-1" d="M348.79,117.88c-.15,3.95.22,7.91-.22,11.89-1.85-3.89-.19-7.93.22-11.89Z"/>
    <path class="cls-1" d="M129.79,125.5c3.13-2.92,5.71.52,8.67.25-2.95,1.1-5.7-1.11-8.67-.25Z"/>
    <path class="cls-1" d="M263.23,133.52c-.29.14-.56.38-.82.36-.25-.01-.49-.28-.73-.43.26-.13.52-.37.78-.36.25,0,.5.26.77.42Z"/>
    <path class="cls-1" d="M260.68,131.16c-.13.04-.33.13-.36.09-.09-.11-.1-.28-.14-.42.13-.03.33-.13.36-.09.09.11.1.28.14.42Z"/>
    <path class="cls-1" d="M266.99,132.04c-.34.34-.67.68-1.01,1.02l-.11-.11c.34-.34.68-.67,1.01-1.01l.11.1Z"/>
    <path class="cls-1" d="M266.89,131.93c.1-.13.19-.26.29-.4-.06.17-.12.33-.18.5,0,0-.11-.1-.11-.1Z"/>
    <path class="cls-1" d="M265.98,133.05c-.1.13-.19.26-.29.39.06-.17.12-.33.18-.5,0,0,.11.11.11.11Z"/>
    <path class="cls-1" d="M295.57,114.06v7.12c-.3-.01-.59-.03-.89-.04.14-2.37.27-4.73.41-7.1.16,0,.32.01.48.02Z"/>
    <path class="cls-1" d="M294.63,125.38c.11-.05.23-.09.34-.14.03.18.07.35.1.53-.13-.02-.28-.01-.37-.08-.06-.05-.05-.2-.07-.31Z"/>
  </g>
</svg>