<svg width="136" height="28" viewBox="0 0 136 28" fill="none" xmlns="http://www.w3.org/2000/svg">
<g clip-path="url(#clip0_2002_22716)">
<path d="M0 16.9847C0.629058 16.5724 1.19167 16.6694 1.63909 17.2536C2.30359 18.1265 2.95037 19.0127 3.58164 19.9099C3.81865 20.2449 4.00471 20.6461 3.6193 20.9966C3.24496 21.3361 2.85291 21.1201 2.50516 20.9129C1.37108 20.2361 0.653423 19.189 0 18.0869V16.9869L0 16.9847Z" fill="#5399D4"/>
<path d="M31.4242 15.2764C31.4043 16.6122 31.2647 17.6284 30.6711 18.5124C29.9778 19.544 28.8083 19.5727 28.1482 18.5168C27.548 17.5579 27.1028 16.5042 26.5889 15.4924C26.2566 14.8377 25.9177 14.1786 25.3618 13.6782C24.8058 13.18 24.1147 12.8273 23.5078 13.4291C22.9297 14.0022 23.2908 14.6657 23.7625 15.1882C24.0062 15.4571 24.3163 15.6709 24.5998 15.9024C25.787 16.8635 26.5424 18.0913 26.868 19.5727C27.198 21.0673 26.425 21.9336 24.8966 21.7815C23.9663 21.6889 23.0914 21.3847 22.3162 20.8733C20.9584 19.9761 19.523 19.8548 17.9836 20.2847C17.0644 20.5404 16.1208 20.7146 15.1529 20.6154C14.5991 20.558 14.1273 20.3641 13.9922 19.7755C13.8593 19.2068 14.1672 18.7769 14.5903 18.4462C15.3389 17.8621 16.1939 17.9789 17.0245 18.1817C18.1365 18.4551 19.2307 18.7857 20.3958 18.5432C21.6672 18.2787 22.2076 17.4477 21.8643 16.2044C21.6184 15.3138 21.171 14.5092 20.5973 13.7862C19.9528 12.975 20.1167 12.2564 20.9008 11.7119C22.9319 10.3011 25.22 9.52072 27.6698 9.26722C28.7817 9.15259 29.5415 9.85138 30.0708 10.7508C30.9435 12.2343 31.2692 13.881 31.422 15.2786L31.4242 15.2764Z" fill="#04A921"/>
<path d="M7.96533 25.0066C7.96533 25.41 7.96976 25.8112 7.96533 26.2146C7.95869 26.7834 7.88338 27.3278 7.28533 27.599C6.68064 27.8745 6.17783 27.5725 5.788 27.1912C4.20649 25.6349 3.71698 23.6972 4.02265 21.5612C4.12897 20.8183 4.74473 20.3796 5.45353 20.1724C6.90878 19.747 8.39283 19.5001 9.91674 19.5949C11.0331 19.6654 11.2767 20.0159 11.1704 21.149C11.0774 22.1277 10.8847 23.2586 11.8903 23.8383C12.9845 24.4688 13.824 23.6047 14.6192 22.9676C15.1043 22.5774 15.514 22.0748 16.132 21.8896C16.7633 21.7001 17.3591 21.8478 17.6271 22.4738C17.8885 23.0866 17.4145 23.5032 16.9139 23.6333C14.6679 24.2131 12.8184 25.2822 11.5736 27.319C11.2679 27.8194 10.5835 28.1699 9.91674 27.9098C9.26775 27.6563 9.11048 27.017 9.01081 26.38C8.86684 25.4519 8.95322 24.5569 9.31205 23.6884C9.4228 23.4195 9.53798 23.1483 9.62215 22.8684C9.77941 22.3504 9.67088 21.85 9.14371 21.6846C8.51244 21.4862 8.18019 22.0087 8.04286 22.4981C7.8125 23.3115 7.828 24.1624 7.96755 25.0066H7.96533Z" fill="#08AA24"/>
<path d="M17.4893 2.20441C17.5025 0.727476 18.3487 0.209447 19.3521 0.751724C20.0276 1.11545 20.4418 1.72385 20.7985 2.37635C21.7863 4.18394 22.4641 6.1282 23.328 7.9909C23.6071 8.59269 23.8241 9.24739 23.0755 9.61112C22.3401 9.96823 21.5892 9.77424 21.1218 9.08427C20.7985 8.60592 20.6301 8.02397 20.3975 7.4883C19.8394 6.19654 18.9246 5.123 18.2091 3.92823C17.8282 3.29337 17.5003 2.64088 17.4937 2.20661L17.4893 2.20441Z" fill="#FE6E4D"/>
<path d="M14.5507 5.32129C15.1576 5.38962 15.7579 5.71808 16.2983 6.18541C17.6583 7.36254 18.6108 8.93647 20.0793 10.0122C20.4005 10.2459 20.4714 10.6272 20.3274 11.0086C20.1746 11.4164 19.8246 11.5002 19.4347 11.5134C18.8212 11.5354 18.2741 11.3635 17.7979 10.9777C16.5996 10.01 15.3946 9.0511 14.2096 8.06794C13.8463 7.76594 13.4941 7.4397 13.297 6.98339C12.8872 6.03771 13.3922 5.29043 14.5507 5.32349V5.32129Z" fill="#FECC5C"/>
<path d="M23.2061 1.55857C23.2636 0.881824 23.0975 0.280028 23.7399 0.0595907C24.3623 -0.154234 24.7831 0.249167 25.153 0.676816C25.6448 1.24555 25.8928 1.94213 26.0678 2.64973C26.3912 3.95913 26.6681 5.27956 26.9427 6.59777C27.0003 6.87773 27.0114 7.18414 26.9671 7.4685C26.8697 8.11439 26.6194 8.75145 25.8773 8.78672C25.1486 8.82199 24.8828 8.1739 24.8208 7.59415C24.6369 5.86592 23.9281 4.2964 23.4276 2.66296C23.3013 2.24854 23.257 1.80987 23.2083 1.55857H23.2061Z" fill="#B085C0"/>
<path d="M28.9541 7.47044C29.1645 6.22277 29.3927 4.70836 29.685 3.20938C29.7892 2.67152 30.055 2.08074 30.7106 2.09397C31.3352 2.10719 31.6431 2.66049 31.7959 3.19616C32.3253 5.04343 31.7406 6.72316 30.8878 8.32795C30.622 8.82614 30.21 9.39046 29.5101 9.159C28.8367 8.93415 29.005 8.27504 28.9541 7.47044Z" fill="#5399D4"/>
<path d="M7.05078 14.4103C7.08844 13.6211 6.95775 12.9223 7.24792 12.2566C7.44948 11.7937 7.72414 11.4167 8.29561 11.4476C8.82721 11.4762 9.02212 11.8818 9.17274 12.3073C9.3876 12.9113 9.33222 13.5373 9.26577 14.1501C9.14173 15.3096 8.99776 16.4537 9.2259 17.6308C9.35659 18.312 8.9734 18.8763 8.24466 18.9711C7.36753 19.0835 7.38968 18.3781 7.33873 17.7984C7.23684 16.6367 7.1416 15.475 7.053 14.4125L7.05078 14.4103Z" fill="#FE6E4D"/>
<path d="M13.5228 14.4345C13.0665 15.7174 12.5039 17.2605 11.6422 18.6669C11.4274 19.0174 10.9733 19.3282 10.4971 19.0372C10.0098 18.7396 10.2047 18.2943 10.3376 17.8601C10.6056 16.9871 10.8404 16.1032 11.0752 15.2214C11.248 14.5777 11.4783 13.9561 11.9368 13.4623C12.2447 13.1317 12.6545 12.8936 13.1263 13.0964C13.5826 13.2926 13.5538 13.7335 13.5228 14.4345Z" fill="#FECC5C"/>
<path d="M6.34377 18.5654C6.30611 18.9952 6.2596 19.3281 5.90741 19.4846C5.59953 19.6213 5.31158 19.467 5.10116 19.2774C4.89073 19.0878 4.68917 18.8365 4.60278 18.5742C4.12656 17.1259 3.5263 15.6997 3.54845 14.1368C3.55509 13.6408 3.67913 13.1426 4.24617 13.0368C4.86415 12.92 5.0923 13.4556 5.22741 13.8833C5.72578 15.4418 5.64383 17.1391 6.34155 18.5676L6.34377 18.5654Z" fill="#B085C0"/>
</g>
<path d="M46.68 12.14C46.36 12.7 46.08 13.26 45.84 13.82L49.26 20.92C48.8333 21.0133 48.3667 21.0467 47.86 21.02C47.3667 20.9933 46.9067 20.9733 46.48 20.96C46.2 20.64 45.94 20.26 45.7 19.82C45.46 19.3667 45.2267 18.9 45 18.42C44.7867 17.94 44.5733 17.4667 44.36 17C44.1467 16.5333 43.9333 16.1133 43.72 15.74C43.7067 16.1267 43.7 16.5467 43.7 17C43.7133 17.44 43.7267 17.8867 43.74 18.34C43.7533 18.7933 43.76 19.24 43.76 19.68C43.7733 20.12 43.78 20.5267 43.78 20.9C43.5933 20.9533 43.3733 20.9867 43.12 21C42.8667 21.0267 42.6 21.04 42.32 21.04C42.04 21.04 41.7667 21.0267 41.5 21C41.2467 20.9733 41.0333 20.94 40.86 20.9C40.7533 18.6067 40.7333 16.3067 40.8 14C40.88 11.68 40.9133 9.35333 40.9 7.02C41.34 7.00667 41.7867 7.01333 42.24 7.04C42.7067 7.05333 43.1533 7.06 43.58 7.06C43.6067 7.82 43.6133 8.62 43.6 9.46C43.5867 10.3 43.5933 11.1 43.62 11.86C43.62 11.8733 43.6267 11.8667 43.64 11.84C43.6667 11.8 43.6933 11.7667 43.72 11.74C44 11.38 44.2533 11.0067 44.48 10.62C44.7067 10.2333 44.92 9.84 45.12 9.44C45.3333 9.04 45.5467 8.64 45.76 8.24C45.9867 7.84 46.24 7.44 46.52 7.04C46.9467 7.06667 47.4 7.06667 47.88 7.04C48.36 7.01333 48.8133 7.03333 49.24 7.1C49.08 7.66 48.8533 8.22 48.56 8.78C48.28 9.34 47.9733 9.9 47.64 10.46C47.32 11.02 47 11.58 46.68 12.14ZM51.2397 10.94C51.5464 10.9533 51.913 10.9533 52.3397 10.94H52.6797V11C52.6664 12.6133 52.633 14.26 52.5797 15.94C52.5397 17.62 52.5664 19.2667 52.6597 20.88C52.593 20.96 52.4264 21 52.1597 21C51.893 21.0133 51.5997 21.0133 51.2797 21C50.973 21 50.6797 20.9933 50.3997 20.98C50.1197 20.9667 49.933 20.9733 49.8397 21C49.9064 20.16 49.933 19.3067 49.9197 18.44C49.9197 17.5733 49.9064 16.7133 49.8797 15.86C49.853 15.0067 49.8397 14.1667 49.8397 13.34C49.8397 12.5 49.8797 11.6867 49.9597 10.9V10.88C50.013 10.8667 50.0997 10.8667 50.2197 10.88C50.353 10.8933 50.453 10.9 50.5197 10.9C50.693 10.9133 50.933 10.9267 51.2397 10.94ZM49.8997 8.14C49.873 7.71333 49.8664 7.19333 49.8797 6.58L52.5997 6.64C52.5997 6.72 52.5997 6.86667 52.5997 7.08C52.613 7.28 52.6197 7.50667 52.6197 7.76C52.633 8 52.6397 8.25333 52.6397 8.52C52.653 8.77333 52.6597 9 52.6597 9.2C52.6064 9.28 52.4797 9.33333 52.2797 9.36C52.093 9.38667 51.8664 9.4 51.5997 9.4C51.3464 9.38667 51.073 9.37333 50.7797 9.36C50.4864 9.33333 50.213 9.32667 49.9597 9.34C49.9597 8.95333 49.9397 8.55333 49.8997 8.14ZM59.2203 7.78C59.2336 7.63333 59.247 7.42667 59.2603 7.16V6.94C59.2603 6.92667 59.347 6.91333 59.5203 6.9C59.707 6.87333 59.927 6.86 60.1803 6.86C60.447 6.84667 60.727 6.84667 61.0203 6.86C61.3136 6.86 61.567 6.88 61.7803 6.92V8.24C61.7803 10.4667 61.8136 12.6667 61.8803 14.84C61.947 17.0133 61.9536 19.06 61.9003 20.98C61.487 20.98 61.0336 20.9867 60.5403 21C60.047 21.0267 59.6003 21.0133 59.2003 20.96C59.187 20.9333 59.1803 20.8867 59.1803 20.82C59.1803 20.6867 59.1736 20.58 59.1603 20.5C59.1603 20.42 59.1603 20.3067 59.1603 20.16C59.1336 20.0933 59.1003 20.0467 59.0603 20.02C59.0336 19.98 59.0003 20 58.9603 20.08C58.7603 20.48 58.4936 20.74 58.1603 20.86C57.827 20.9667 57.4736 20.9933 57.1003 20.94C56.3403 20.8867 55.7403 20.6933 55.3003 20.36C54.8603 20.0133 54.527 19.58 54.3003 19.06C54.087 18.5267 53.9403 17.9333 53.8603 17.28C53.7936 16.6267 53.7536 15.9667 53.7403 15.3C53.7403 14.8333 53.767 14.38 53.8203 13.94C53.887 13.5 53.9803 13.1 54.1003 12.74C54.2336 12.3667 54.4003 12.0533 54.6003 11.8C54.8136 11.5333 55.067 11.3467 55.3603 11.24C55.7203 11.1067 56.1136 11.0267 56.5403 11C56.9803 10.96 57.3936 10.96 57.7803 11C58.167 11.0267 58.4936 11.0867 58.7603 11.18C59.027 11.2733 59.1736 11.38 59.2003 11.5C59.187 10.8733 59.1803 10.3667 59.1803 9.98C59.1803 9.59333 59.1803 9.28667 59.1803 9.06C59.1803 8.82 59.1803 8.64 59.1803 8.52C59.1936 8.38667 59.2003 8.26667 59.2003 8.16C59.2136 8.04 59.2203 7.91333 59.2203 7.78ZM56.7403 13.64C56.4203 13.88 56.227 14.2333 56.1603 14.7C56.0936 14.8867 56.0536 15.08 56.0403 15.28C56.027 15.48 56.0203 15.6733 56.0203 15.86C56.0203 16.1933 56.0603 16.52 56.1403 16.84C56.2203 17.1467 56.3403 17.4267 56.5003 17.68C56.6603 17.92 56.8536 18.1133 57.0803 18.26C57.307 18.4067 57.5603 18.48 57.8403 18.48C58.1736 18.48 58.4336 18.4067 58.6203 18.26C58.8203 18.1133 58.967 17.9133 59.0603 17.66C59.167 17.4067 59.227 17.1067 59.2403 16.76C59.267 16.4 59.2803 16.0067 59.2803 15.58C59.2803 15.06 59.267 14.6533 59.2403 14.36C59.227 14.0533 59.1803 13.82 59.1003 13.66C59.0203 13.5 58.8936 13.4 58.7203 13.36C58.5603 13.3067 58.3403 13.28 58.0603 13.28C57.5136 13.28 57.0736 13.4 56.7403 13.64ZM66.1981 7.34C66.4248 7.35333 66.6515 7.34667 66.8781 7.32V10C66.8781 10.1733 66.8781 10.3533 66.8781 10.54C66.8915 10.7267 66.8981 10.92 66.8981 11.12C67.3115 11.1067 67.7448 11.0867 68.1981 11.06C68.6648 11.0333 69.2381 11 69.9181 10.96C70.0115 11.0667 70.0648 11.2267 70.0781 11.44C70.0915 11.64 70.0915 11.86 70.0781 12.1C70.0648 12.34 70.0448 12.5867 70.0181 12.84C70.0048 13.08 70.0115 13.2867 70.0381 13.46H66.9381C66.9381 14.18 66.9381 14.8867 66.9381 15.58C66.9381 16.26 66.9448 16.9 66.9581 17.5C67.0915 17.6867 67.2848 17.8333 67.5381 17.94C67.7915 18.0467 68.0648 18.1333 68.3581 18.2C68.6515 18.2533 68.9448 18.2867 69.2381 18.3C69.5448 18.3133 69.8115 18.3133 70.0381 18.3C70.0648 18.4867 70.0915 18.6933 70.1181 18.92C70.1448 19.1467 70.1648 19.38 70.1781 19.62C70.1915 19.86 70.1848 20.1 70.1581 20.34C70.1448 20.58 70.1048 20.8 70.0381 21C69.5048 21.0267 68.9515 21.0267 68.3781 21C67.8048 20.96 67.2648 20.88 66.7581 20.76C66.2515 20.64 65.7981 20.46 65.3981 20.22C65.0115 19.98 64.7315 19.6533 64.5581 19.24C64.3848 18.2133 64.2848 17.2467 64.2581 16.34C64.2315 15.42 64.2248 14.4733 64.2381 13.5C64.0248 13.5133 63.7981 13.52 63.5581 13.52C63.3315 13.52 63.0781 13.52 62.7981 13.52L62.8581 11.08C63.1248 11.0933 63.3715 11.1 63.5981 11.1C63.8381 11.1 64.0648 11.1 64.2781 11.1C64.2781 10.8067 64.2715 10.4933 64.2581 10.16C64.2448 9.81333 64.2381 9.46667 64.2381 9.12C64.2381 8.77333 64.2381 8.44 64.2381 8.12C64.2515 7.8 64.2715 7.51333 64.2981 7.26C64.4715 7.23333 64.6581 7.22667 64.8581 7.24C65.0715 7.25333 65.2915 7.27333 65.5181 7.3C65.7448 7.31333 65.9715 7.32667 66.1981 7.34ZM72.3725 10.94C72.6792 10.9533 73.0458 10.9533 73.4725 10.94H73.8125V11C73.7992 12.6133 73.7658 14.26 73.7125 15.94C73.6725 17.62 73.6992 19.2667 73.7925 20.88C73.7258 20.96 73.5592 21 73.2925 21C73.0258 21.0133 72.7325 21.0133 72.4125 21C72.1058 21 71.8125 20.9933 71.5325 20.98C71.2525 20.9667 71.0658 20.9733 70.9725 21C71.0392 20.16 71.0658 19.3067 71.0525 18.44C71.0525 17.5733 71.0392 16.7133 71.0125 15.86C70.9858 15.0067 70.9725 14.1667 70.9725 13.34C70.9725 12.5 71.0125 11.6867 71.0925 10.9V10.88C71.1458 10.8667 71.2325 10.8667 71.3525 10.88C71.4858 10.8933 71.5858 10.9 71.6525 10.9C71.8258 10.9133 72.0658 10.9267 72.3725 10.94ZM71.0325 8.14C71.0058 7.71333 70.9992 7.19333 71.0125 6.58L73.7325 6.64C73.7325 6.72 73.7325 6.86667 73.7325 7.08C73.7458 7.28 73.7525 7.50667 73.7525 7.76C73.7658 8 73.7725 8.25333 73.7725 8.52C73.7858 8.77333 73.7925 9 73.7925 9.2C73.7392 9.28 73.6125 9.33333 73.4125 9.36C73.2258 9.38667 72.9992 9.4 72.7325 9.4C72.4792 9.38667 72.2058 9.37333 71.9125 9.36C71.6192 9.33333 71.3458 9.32667 71.0925 9.34C71.0925 8.95333 71.0725 8.55333 71.0325 8.14ZM76.0931 11.04C76.5731 11 77.0265 11.0067 77.4531 11.06C77.5465 11.54 77.6398 12.0933 77.7331 12.72C77.8265 13.3333 77.9265 13.96 78.0331 14.6C78.1398 15.24 78.2531 15.8533 78.3731 16.44C78.4931 17.0133 78.6265 17.5 78.7731 17.9C78.9198 17.5 79.0531 17 79.1731 16.4C79.2931 15.7867 79.4065 15.1533 79.5131 14.5C79.6331 13.8467 79.7598 13.2133 79.8931 12.6C80.0265 11.9867 80.1731 11.48 80.3331 11.08C80.5598 11.08 80.7731 11.0733 80.9731 11.06C81.1731 11.0467 81.3798 11.0333 81.5931 11.02C81.8065 11.0067 82.0265 11 82.2531 11C82.4798 11 82.7331 11.0067 83.0131 11.02C82.7331 11.78 82.4865 12.5733 82.2731 13.4C82.0731 14.2133 81.8798 15.0467 81.6931 15.9C81.5065 16.7533 81.3198 17.6133 81.1331 18.48C80.9465 19.3333 80.7398 20.18 80.5131 21.02C80.2465 21.06 79.9465 21.08 79.6131 21.08C79.2931 21.0933 78.9598 21.0933 78.6131 21.08C78.2798 21.08 77.9465 21.0733 77.6131 21.06C77.2931 21.06 77.0065 21.06 76.7531 21.06C76.4865 19.3933 76.1798 17.6933 75.8331 15.96C75.4865 14.2267 75.0998 12.5733 74.6731 11C75.1531 11.0533 75.6265 11.0667 76.0931 11.04ZM85.0873 10.94C85.394 10.9533 85.7607 10.9533 86.1873 10.94H86.5273V11C86.514 12.6133 86.4807 14.26 86.4273 15.94C86.3873 17.62 86.414 19.2667 86.5073 20.88C86.4407 20.96 86.274 21 86.0073 21C85.7407 21.0133 85.4473 21.0133 85.1273 21C84.8207 21 84.5273 20.9933 84.2473 20.98C83.9673 20.9667 83.7807 20.9733 83.6873 21C83.754 20.16 83.7807 19.3067 83.7673 18.44C83.7673 17.5733 83.754 16.7133 83.7273 15.86C83.7007 15.0067 83.6873 14.1667 83.6873 13.34C83.6873 12.5 83.7273 11.6867 83.8073 10.9V10.88C83.8607 10.8667 83.9473 10.8667 84.0673 10.88C84.2007 10.8933 84.3007 10.9 84.3673 10.9C84.5407 10.9133 84.7807 10.9267 85.0873 10.94ZM83.7473 8.14C83.7207 7.71333 83.714 7.19333 83.7273 6.58L86.4473 6.64C86.4473 6.72 86.4473 6.86667 86.4473 7.08C86.4607 7.28 86.4673 7.50667 86.4673 7.76C86.4807 8 86.4873 8.25333 86.4873 8.52C86.5007 8.77333 86.5073 9 86.5073 9.2C86.454 9.28 86.3273 9.33333 86.1273 9.36C85.9407 9.38667 85.714 9.4 85.4473 9.4C85.194 9.38667 84.9207 9.37333 84.6273 9.36C84.334 9.33333 84.0607 9.32667 83.8073 9.34C83.8073 8.95333 83.7873 8.55333 83.7473 8.14ZM90.788 7.34C91.0146 7.35333 91.2413 7.34667 91.468 7.32V10C91.468 10.1733 91.468 10.3533 91.468 10.54C91.4813 10.7267 91.488 10.92 91.488 11.12C91.9013 11.1067 92.3346 11.0867 92.788 11.06C93.2546 11.0333 93.828 11 94.508 10.96C94.6013 11.0667 94.6546 11.2267 94.668 11.44C94.6813 11.64 94.6813 11.86 94.668 12.1C94.6546 12.34 94.6346 12.5867 94.608 12.84C94.5946 13.08 94.6013 13.2867 94.628 13.46H91.528C91.528 14.18 91.528 14.8867 91.528 15.58C91.528 16.26 91.5346 16.9 91.548 17.5C91.6813 17.6867 91.8746 17.8333 92.128 17.94C92.3813 18.0467 92.6546 18.1333 92.948 18.2C93.2413 18.2533 93.5346 18.2867 93.828 18.3C94.1346 18.3133 94.4013 18.3133 94.628 18.3C94.6546 18.4867 94.6813 18.6933 94.708 18.92C94.7346 19.1467 94.7546 19.38 94.768 19.62C94.7813 19.86 94.7746 20.1 94.748 20.34C94.7346 20.58 94.6946 20.8 94.628 21C94.0946 21.0267 93.5413 21.0267 92.968 21C92.3946 20.96 91.8546 20.88 91.348 20.76C90.8413 20.64 90.388 20.46 89.988 20.22C89.6013 19.98 89.3213 19.6533 89.148 19.24C88.9746 18.2133 88.8746 17.2467 88.848 16.34C88.8213 15.42 88.8146 14.4733 88.828 13.5C88.6146 13.5133 88.388 13.52 88.148 13.52C87.9213 13.52 87.668 13.52 87.388 13.52L87.448 11.08C87.7146 11.0933 87.9613 11.1 88.188 11.1C88.428 11.1 88.6546 11.1 88.868 11.1C88.868 10.8067 88.8613 10.4933 88.848 10.16C88.8346 9.81333 88.828 9.46667 88.828 9.12C88.828 8.77333 88.828 8.44 88.828 8.12C88.8413 7.8 88.8613 7.51333 88.888 7.26C89.0613 7.23333 89.248 7.22667 89.448 7.24C89.6613 7.25333 89.8813 7.27333 90.108 7.3C90.3346 7.31333 90.5613 7.32667 90.788 7.34ZM96.4823 11.04C97.0157 11 97.4957 11.0067 97.9223 11.06C98.0157 11.54 98.1223 12.1133 98.2423 12.78C98.3623 13.4333 98.489 14.1 98.6223 14.78C98.7557 15.46 98.8957 16.1133 99.0423 16.74C99.189 17.3533 99.3357 17.86 99.4823 18.26C99.629 17.86 99.749 17.3333 99.8423 16.68C99.9357 16.0267 100.022 15.3467 100.102 14.64C100.196 13.9333 100.296 13.2533 100.402 12.6C100.509 11.9467 100.642 11.42 100.802 11.02C101.256 11.0333 101.716 11.0267 102.182 11C102.649 10.9733 103.162 10.98 103.722 11.02C103.509 11.82 103.316 12.5867 103.142 13.32C102.982 14.04 102.822 14.7467 102.662 15.44C102.489 16.0933 102.329 16.78 102.182 17.5C102.049 18.22 101.876 18.9267 101.662 19.62C101.462 20.3133 101.202 20.9733 100.882 21.6C100.562 22.2267 100.136 22.7667 99.6023 23.22C99.0823 23.6867 98.429 24.04 97.6423 24.28C96.869 24.52 95.9157 24.6067 94.7823 24.54C94.649 24.14 94.5823 23.6867 94.5823 23.18C94.569 22.6867 94.5957 22.2533 94.6623 21.88C94.9823 21.88 95.309 21.8933 95.6423 21.92C95.989 21.9467 96.2957 21.9267 96.5623 21.86C96.829 21.8067 97.029 21.68 97.1623 21.48C97.309 21.28 97.349 20.96 97.2823 20.52C97.0023 18.9067 96.649 17.2933 96.2223 15.68C95.7957 14.0667 95.3757 12.5067 94.9623 11C95.4423 11.0533 95.949 11.0667 96.4823 11.04ZM116.679 18.82C116.679 18.9533 116.685 19.0733 116.699 19.18C116.725 19.66 116.739 20.0267 116.739 20.28C116.739 20.52 116.719 20.7 116.679 20.82C116.652 20.9267 116.599 20.9867 116.519 21C116.439 21 116.325 21 116.179 21C116.032 20.9867 115.839 20.9867 115.599 21C115.372 21.0133 114.979 21.0267 114.419 21.04C113.872 21.0533 113.112 21.06 112.139 21.06C111.179 21.06 109.892 21.0467 108.279 21.02V20.66C108.319 19.66 108.352 18.76 108.379 17.96C108.405 17.1467 108.419 16.3933 108.419 15.7C108.432 14.9933 108.439 14.3133 108.439 13.66C108.439 13.0067 108.432 12.34 108.419 11.66C108.405 10.98 108.392 10.26 108.379 9.5C108.365 8.72667 108.352 7.87333 108.339 6.94C108.472 6.88667 108.679 6.84667 108.959 6.82C109.239 6.78 109.539 6.76 109.859 6.76C110.179 6.76 110.492 6.78 110.799 6.82C111.105 6.86 111.352 6.92 111.539 7C111.512 7.86667 111.499 8.76 111.499 9.68C111.512 10.5867 111.525 11.5 111.539 12.42C111.552 13.34 111.559 14.26 111.559 15.18C111.572 16.0867 111.572 16.9667 111.559 17.82V17.84C111.652 17.8133 111.825 17.8067 112.079 17.82C112.345 17.82 112.652 17.8267 112.999 17.84C113.345 17.8533 113.712 17.8733 114.099 17.9C114.499 17.9133 114.872 17.9267 115.219 17.94C115.579 17.9533 115.892 17.9667 116.159 17.98C116.439 17.98 116.632 17.9733 116.739 17.96C116.739 18.1067 116.732 18.2533 116.719 18.4C116.705 18.5333 116.692 18.6733 116.679 18.82ZM124.417 10.98C124.751 10.9933 125.131 11.0133 125.557 11.04C125.571 11.12 125.577 11.2 125.577 11.28C125.591 11.36 125.597 11.44 125.597 11.52V11.72C125.557 13.16 125.564 14.58 125.617 15.98C125.671 17.3667 125.651 18.7733 125.557 20.2C125.557 20.3733 125.551 20.5467 125.537 20.72C125.537 20.8933 125.457 20.9933 125.297 21.02H125.057C124.844 21.02 124.624 21.0133 124.397 21C124.184 20.9733 123.971 20.96 123.757 20.96C123.611 20.96 123.464 20.9733 123.317 21C123.184 21.0133 123.044 21.02 122.897 21.02C122.804 20.9933 122.737 20.94 122.697 20.86C122.671 20.78 122.657 20.6867 122.657 20.58C122.657 20.4333 122.671 20.3133 122.697 20.22C122.724 20.1267 122.737 20.0133 122.737 19.88C122.417 20.2 122.011 20.4733 121.517 20.7C121.037 20.9267 120.564 21.04 120.097 21.04C119.577 21.04 119.131 20.86 118.757 20.5C118.397 20.14 118.097 19.6933 117.857 19.16C117.617 18.6267 117.437 18.0467 117.317 17.42C117.211 16.7933 117.157 16.2133 117.157 15.68C117.157 15.0133 117.244 14.4 117.417 13.84C117.591 13.28 117.824 12.8 118.117 12.4C118.424 11.9867 118.784 11.6667 119.197 11.44C119.611 11.2 120.051 11.0733 120.517 11.06C120.757 11.06 120.977 11.0667 121.177 11.08C121.391 11.08 121.584 11.1133 121.757 11.18C121.931 11.2333 122.084 11.3267 122.217 11.46C122.351 11.58 122.464 11.7533 122.557 11.98C122.544 11.7667 122.551 11.5867 122.577 11.44C122.617 11.28 122.637 11.12 122.637 10.96C122.637 10.9467 122.677 10.94 122.757 10.94C122.851 10.9267 122.951 10.9267 123.057 10.94C123.164 10.94 123.271 10.94 123.377 10.94C123.484 10.94 123.557 10.94 123.597 10.94C123.824 10.9533 124.097 10.9667 124.417 10.98ZM120.297 14.14C119.991 14.3933 119.804 14.6867 119.737 15.02C119.684 15.1933 119.651 15.3733 119.637 15.56C119.624 15.7333 119.617 15.9067 119.617 16.08C119.617 16.68 119.771 17.1933 120.077 17.62C120.397 18.0333 120.837 18.24 121.397 18.24C121.731 18.24 121.977 18.1867 122.137 18.08C122.311 17.96 122.431 17.8 122.497 17.6C122.577 17.3867 122.617 17.1333 122.617 16.84C122.631 16.5333 122.637 16.1933 122.637 15.82C122.637 15.3533 122.631 14.9867 122.617 14.72C122.617 14.44 122.584 14.2267 122.517 14.08C122.464 13.9333 122.364 13.84 122.217 13.8C122.084 13.76 121.877 13.74 121.597 13.74C121.051 13.74 120.617 13.8733 120.297 14.14ZM129.349 6.9C129.536 6.91333 129.629 6.92667 129.629 6.94V7.16C129.642 7.42667 129.649 7.63333 129.649 7.78C129.662 7.91333 129.669 8.04 129.669 8.16C129.682 8.26667 129.689 8.38667 129.689 8.52C129.702 8.64 129.709 8.82 129.709 9.06C129.709 9.28667 129.709 9.59333 129.709 9.98C129.709 10.3667 129.702 10.8733 129.689 11.5C129.716 11.38 129.862 11.2733 130.129 11.18C130.396 11.0867 130.722 11.0267 131.109 11C131.496 10.96 131.902 10.96 132.329 11C132.769 11.0267 133.169 11.1067 133.529 11.24C133.822 11.3467 134.069 11.5333 134.269 11.8C134.482 12.0533 134.649 12.3667 134.769 12.74C134.902 13.1 134.996 13.5 135.049 13.94C135.116 14.38 135.149 14.8333 135.149 15.3C135.122 15.9667 135.076 16.6267 135.009 17.28C134.942 17.9333 134.796 18.5267 134.569 19.06C134.356 19.58 134.029 20.0133 133.589 20.36C133.149 20.6933 132.549 20.8867 131.789 20.94C131.416 20.9933 131.062 20.9667 130.729 20.86C130.396 20.74 130.129 20.48 129.929 20.08C129.889 20 129.849 19.98 129.809 20.02C129.782 20.0467 129.756 20.0933 129.729 20.16C129.729 20.3067 129.722 20.42 129.709 20.5C129.709 20.58 129.709 20.6867 129.709 20.82C129.709 20.8867 129.702 20.9333 129.689 20.96C129.289 21.0133 128.842 21.0267 128.349 21C127.856 20.9867 127.402 20.98 126.989 20.98C126.962 20.02 126.949 19.0267 126.949 18C126.962 16.96 126.976 15.9067 126.989 14.84C127.016 13.76 127.042 12.6667 127.069 11.56C127.096 10.4533 127.109 9.34667 127.109 8.24V6.92C127.322 6.88 127.576 6.86 127.869 6.86C128.162 6.84667 128.436 6.84667 128.689 6.86C128.956 6.86 129.176 6.87333 129.349 6.9ZM132.849 15.28C132.836 15.08 132.796 14.8867 132.729 14.7C132.662 14.2333 132.462 13.88 132.129 13.64C131.809 13.4 131.376 13.28 130.829 13.28C130.549 13.28 130.322 13.3067 130.149 13.36C129.989 13.4 129.869 13.5 129.789 13.66C129.709 13.82 129.656 14.0533 129.629 14.36C129.616 14.6533 129.609 15.06 129.609 15.58C129.609 16.0067 129.616 16.4 129.629 16.76C129.656 17.1067 129.716 17.4067 129.809 17.66C129.916 17.9133 130.062 18.1133 130.249 18.26C130.436 18.4067 130.702 18.48 131.049 18.48C131.329 18.48 131.582 18.4067 131.809 18.26C132.036 18.1133 132.229 17.92 132.389 17.68C132.549 17.4267 132.669 17.1467 132.749 16.84C132.829 16.52 132.869 16.1933 132.869 15.86C132.869 15.6733 132.862 15.48 132.849 15.28Z" fill="url(#paint0_linear_2002_22716)"/>
<defs>
<linearGradient id="paint0_linear_2002_22716" x1="45.1692" y1="13.3684" x2="141.908" y2="13.3684" gradientUnits="userSpaceOnUse">
<stop stop-color="#EEAF21"/>
<stop offset="0.290189" stop-color="#EA4B27"/>
<stop offset="0.639983" stop-color="#A95FC5"/>
<stop offset="1" stop-color="#3A93DD"/>
</linearGradient>
<clipPath id="clip0_2002_22716">
<rect width="32" height="28" fill="white"/>
</clipPath>
</defs>
</svg>
