<svg width="24" height="25" viewBox="0 0 24 25" fill="none" xmlns="http://www.w3.org/2000/svg">
<path d="M21 15.8165C21 16.347 20.7893 16.8557 20.4142 17.2307C20.0391 17.6058 19.5304 17.8165 19 17.8165H7L3 21.8165V5.81653C3 5.2861 3.21071 4.77739 3.58579 4.40231C3.96086 4.02724 4.46957 3.81653 5 3.81653H19C19.5304 3.81653 20.0391 4.02724 20.4142 4.40231C20.7893 4.77739 21 5.2861 21 5.81653V15.8165Z" stroke="#6017A9" stroke-width="2" stroke-linecap="round" stroke-linejoin="round"/>
<path d="M8 12.8165C8.53043 12.8165 9.03914 12.6058 9.41421 12.2307C9.78929 11.8557 10 11.347 10 10.8165V8.81653H8" stroke="#6017A9" stroke-width="2" stroke-linecap="round" stroke-linejoin="round"/>
<path d="M14 12.8165C14.5304 12.8165 15.0391 12.6058 15.4142 12.2307C15.7893 11.8557 16 11.347 16 10.8165V8.81653H14" stroke="#6017A9" stroke-width="2" stroke-linecap="round" stroke-linejoin="round"/>
</svg>
