<svg width="32" height="32" viewBox="0 0 32 32" fill="none" xmlns="http://www.w3.org/2000/svg">
<path d="M16 4L13.4507 11.7507C13.3202 12.1473 13.0984 12.5078 12.8031 12.8031C12.5078 13.0984 12.1473 13.3202 11.7507 13.4507L4 16L11.7507 18.5493C12.1473 18.6798 12.5078 18.9016 12.8031 19.1969C13.0984 19.4922 13.3202 19.8527 13.4507 20.2493L16 28L18.5493 20.2493C18.6798 19.8527 18.9016 19.4922 19.1969 19.1969C19.4922 18.9016 19.8527 18.6798 20.2493 18.5493L28 16L20.2493 13.4507C19.8527 13.3202 19.4922 13.0984 19.1969 12.8031C18.9016 12.5078 18.6798 12.1473 18.5493 11.7507L16 4Z" stroke="#6017A9" stroke-width="2" stroke-linecap="round" stroke-linejoin="round"/>
<path d="M6.66699 4V9.33333" stroke="#6017A9" stroke-width="2" stroke-linecap="round" stroke-linejoin="round"/>
<path d="M25.333 22.6665V27.9998" stroke="#6017A9" stroke-width="2" stroke-linecap="round" stroke-linejoin="round"/>
<path d="M4 6.6665H9.33333" stroke="#6017A9" stroke-width="2" stroke-linecap="round" stroke-linejoin="round"/>
<path d="M22.667 25.3335H28.0003" stroke="#6017A9" stroke-width="2" stroke-linecap="round" stroke-linejoin="round"/>
</svg>
