<svg width="24" height="25" viewBox="0 0 24 25" fill="none" xmlns="http://www.w3.org/2000/svg">
<path d="M10 9.15796C9.20435 9.15796 8.44129 9.47403 7.87868 10.0366C7.31607 10.5992 7 11.3623 7 12.158C7 12.9536 7.31607 13.7167 7.87868 14.2793C8.44129 14.8419 9.20435 15.158 10 15.158" stroke="#6017A9" stroke-width="2" stroke-linecap="round" stroke-linejoin="round"/>
<path d="M2 12.158H3" stroke="#6017A9" stroke-width="2" stroke-linecap="round" stroke-linejoin="round"/>
<path d="M14 21.158V3.15796" stroke="#6017A9" stroke-width="2" stroke-linecap="round" stroke-linejoin="round"/>
<path d="M10 4.15796V3.15796" stroke="#6017A9" stroke-width="2" stroke-linecap="round" stroke-linejoin="round"/>
<path d="M10 21.158V20.158" stroke="#6017A9" stroke-width="2" stroke-linecap="round" stroke-linejoin="round"/>
<path d="M3.63965 18.518L4.33965 17.818" stroke="#6017A9" stroke-width="2" stroke-linecap="round" stroke-linejoin="round"/>
<path d="M4.33965 6.49797L3.63965 5.79797" stroke="#6017A9" stroke-width="2" stroke-linecap="round" stroke-linejoin="round"/>
<path d="M14 12.158H22" stroke="#6017A9" stroke-width="2" stroke-linecap="round" stroke-linejoin="round"/>
<path d="M17 4.15796L14 7.15796" stroke="#6017A9" stroke-width="2" stroke-linecap="round" stroke-linejoin="round"/>
<path d="M14 17.158L17 20.158" stroke="#6017A9" stroke-width="2" stroke-linecap="round" stroke-linejoin="round"/>
<path d="M21 15.158L18 12.158L21 9.15796" stroke="#6017A9" stroke-width="2" stroke-linecap="round" stroke-linejoin="round"/>
</svg>
