<svg width="24" height="25" viewBox="0 0 24 25" fill="none" xmlns="http://www.w3.org/2000/svg">
<path d="M9 3.49951H5C3.89543 3.49951 3 4.39494 3 5.49951V9.49951C3 10.6041 3.89543 11.4995 5 11.4995H9C10.1046 11.4995 11 10.6041 11 9.49951V5.49951C11 4.39494 10.1046 3.49951 9 3.49951Z" stroke="#6017A9" stroke-width="2" stroke-linecap="round" stroke-linejoin="round"/>
<path d="M7 11.4995V15.4995C7 16.0299 7.21071 16.5387 7.58579 16.9137C7.96086 17.2888 8.46957 17.4995 9 17.4995H13" stroke="#6017A9" stroke-width="2" stroke-linecap="round" stroke-linejoin="round"/>
<path d="M19 13.4995H15C13.8954 13.4995 13 14.3949 13 15.4995V19.4995C13 20.6041 13.8954 21.4995 15 21.4995H19C20.1046 21.4995 21 20.6041 21 19.4995V15.4995C21 14.3949 20.1046 13.4995 19 13.4995Z" stroke="#6017A9" stroke-width="2" stroke-linecap="round" stroke-linejoin="round"/>
</svg>
